<svg id="_5_-_SASANIANN" data-name="5 - SASANIANN" xmlns="http://www.w3.org/2000/svg" viewBox="0 0 3840 2160"><defs><style>.cls-1,.cls-14,.cls-21,.cls-26,.cls-54,.cls-7{font-size:12.42px;}.cls-1,.cls-54{fill:#939598;}.cls-1,.cls-54,.cls-63,.cls-64{font-family:NeutralStd-Regular, Neutral Std;}.cls-2{letter-spacing:0em;}.cls-3{letter-spacing:-0.09em;}.cls-4{letter-spacing:-0.03em;}.cls-5{letter-spacing:0em;}.cls-6{letter-spacing:0em;}.cls-14,.cls-21,.cls-26,.cls-62,.cls-7{fill:#231f20;}.cls-14,.cls-21,.cls-26,.cls-7{font-family:NeutralStd-RegularItalic, Neutral Std;font-style:italic;}.cls-7{letter-spacing:0.35em;}.cls-8{letter-spacing:0.34em;}.cls-9{letter-spacing:0.34em;}.cls-10{letter-spacing:0.34em;}.cls-11{letter-spacing:0.35em;}.cls-12{letter-spacing:0.35em;}.cls-13{letter-spacing:0.35em;}.cls-14{letter-spacing:0.36em;}.cls-15{letter-spacing:0.34em;}.cls-16{letter-spacing:0.34em;}.cls-17{letter-spacing:0.34em;}.cls-18{letter-spacing:0.34em;}.cls-19{letter-spacing:0.34em;}.cls-20{letter-spacing:0.35em;}.cls-21{letter-spacing:0.34em;}.cls-22{letter-spacing:0.34em;}.cls-23{letter-spacing:0.34em;}.cls-24{letter-spacing:0.35em;}.cls-25{letter-spacing:0.34em;}.cls-26{letter-spacing:0.35em;}.cls-27{letter-spacing:0.35em;}.cls-28{letter-spacing:0.34em;}.cls-29{letter-spacing:0.34em;}.cls-30{letter-spacing:0.33em;}.cls-31{letter-spacing:0.34em;}.cls-32{letter-spacing:0.34em;}.cls-33{letter-spacing:0.34em;}.cls-34{letter-spacing:0.34em;}.cls-35{letter-spacing:0.34em;}.cls-36{letter-spacing:0.02em;}.cls-37{letter-spacing:0em;}.cls-38{letter-spacing:0em;}.cls-39{letter-spacing:0em;}.cls-40{letter-spacing:-0.02em;}.cls-41{letter-spacing:0em;}.cls-42{letter-spacing:-0.01em;}.cls-43{letter-spacing:-0.01em;}.cls-44{letter-spacing:0em;}.cls-45{letter-spacing:0.03em;}.cls-46{letter-spacing:0em;}.cls-47{letter-spacing:0em;}.cls-48{letter-spacing:0em;}.cls-49{letter-spacing:0em;}.cls-50{letter-spacing:0.01em;}.cls-51{letter-spacing:-0.01em;}.cls-52{letter-spacing:0em;}.cls-53{letter-spacing:0em;}.cls-54{letter-spacing:-0.06em;}.cls-55{letter-spacing:0em;}.cls-56{letter-spacing:-0.01em;}.cls-57{letter-spacing:0.01em;}.cls-58{letter-spacing:0em;}.cls-59{letter-spacing:0em;}.cls-60{letter-spacing:0em;}.cls-61{letter-spacing:0em;}.cls-63,.cls-64{font-size:31.04px;fill:#fff;}.cls-63{letter-spacing:-0.02em;}.cls-64{letter-spacing:-0.03em;}.cls-65{letter-spacing:-0.02em;}.cls-66{letter-spacing:0em;}.cls-67{letter-spacing:0em;}.cls-68{letter-spacing:0.01em;}.cls-69{letter-spacing:-0.03em;}.cls-70{letter-spacing:-0.09em;}.cls-71{letter-spacing:0em;}</style></defs><title>china</title><text class="cls-1" transform="translate(1084.69 948.28)">A<tspan class="cls-2" x="9.01" y="0">N</tspan><tspan class="cls-3" x="18.41" y="0">A</tspan><tspan class="cls-4" x="26.37" y="0">T</tspan><tspan class="cls-5" x="33.78" y="0">O</tspan><tspan class="cls-6" x="43.6" y="0">L</tspan><tspan class="cls-2" x="50.88" y="0">I</tspan><tspan x="54.43" y="0">A</tspan></text><text class="cls-7" transform="translate(1118.27 809.93)">B<tspan class="cls-8" x="12.86" y="0">l</tspan><tspan class="cls-9" x="20.26" y="0">a</tspan><tspan class="cls-10" x="31.5" y="0">c</tspan><tspan class="cls-11" x="42.55" y="0">k </tspan><tspan class="cls-12" x="61.12" y="0">S</tspan><tspan class="cls-13" x="73.58" y="0">e</tspan><tspan class="cls-11" x="85.08" y="0">a</tspan></text><text class="cls-14" transform="translate(1531.15 836.54)">C<tspan class="cls-15" x="13.36" y="0">a</tspan><tspan class="cls-16" x="24.57" y="0">s</tspan><tspan class="cls-17" x="35.05" y="0">p</tspan><tspan class="cls-18" x="46.95" y="0">i</tspan><tspan class="cls-19" x="54.37" y="0">a</tspan><tspan class="cls-11" x="65.58" y="0">n</tspan><tspan class="cls-12"><tspan x="21" y="13.19">S</tspan><tspan class="cls-13" x="33.46" y="13.19">e</tspan><tspan class="cls-20" x="44.96" y="13.19">a</tspan></tspan></text><text class="cls-21" transform="translate(3489.93 1665.96)">P<tspan class="cls-9" x="12.02" y="0">a</tspan><tspan class="cls-10" x="23.26" y="0">ci</tspan><tspan class="cls-22" x="41.75" y="0">f</tspan><tspan class="cls-23" x="50.51" y="0">i</tspan><tspan class="cls-11" x="57.97" y="0">c</tspan><tspan class="cls-24"><tspan x="4.81" y="13.19">O</tspan><tspan class="cls-25" x="18.86" y="13.19">c</tspan><tspan class="cls-13" x="29.93" y="13.19">e</tspan><tspan class="cls-19" x="41.43" y="13.19">a</tspan><tspan class="cls-11" x="52.64" y="13.19">n</tspan></tspan></text><text class="cls-26" transform="translate(690.85 1091.5)">M<tspan class="cls-27" x="15.78" y="0">e</tspan><tspan class="cls-28" x="27.37" y="0">d</tspan><tspan class="cls-29" x="39.33" y="0">i</tspan><tspan class="cls-30" x="46.81" y="0">t</tspan><tspan class="cls-31" x="55.51" y="0">e</tspan><tspan class="cls-32" x="67" y="0">r</tspan><tspan class="cls-33" x="75.96" y="0">r</tspan><tspan class="cls-34" x="84.96" y="0">a</tspan><tspan class="cls-35" x="96.17" y="0">ne</tspan><tspan class="cls-19" x="119.3" y="0">a</tspan><tspan class="cls-11" x="130.51" y="0">n </tspan><tspan class="cls-12" x="149.73" y="0">S</tspan><tspan class="cls-13" x="162.19" y="0">e</tspan><tspan class="cls-20" x="173.69" y="0">a</tspan></text><text class="cls-1" transform="translate(1444.13 1411.74)">A<tspan class="cls-36" x="9.01" y="0">R</tspan><tspan class="cls-37" x="17.84" y="0">A</tspan><tspan class="cls-38" x="26.85" y="0">B</tspan><tspan class="cls-2" x="35.58" y="0">I</tspan><tspan x="39.14" y="0">AN</tspan><tspan class="cls-39" x="-7.26" y="13.97">P</tspan><tspan class="cls-40" x="0.61" y="13.97">E</tspan><tspan class="cls-41" x="8.29" y="13.97">NI</tspan><tspan class="cls-42" x="21.15" y="13.97">N</tspan><tspan class="cls-43" x="30.42" y="13.97">S</tspan><tspan class="cls-44" x="38.8" y="13.97">U</tspan><tspan class="cls-45" x="48.12" y="13.97">L</tspan><tspan x="55.81" y="13.97">A</tspan></text><text class="cls-1" transform="translate(2236.69 1435.69)"><tspan class="cls-46">IN</tspan><tspan class="cls-47" x="12.85" y="0">D</tspan><tspan class="cls-48" x="22.12" y="0">I</tspan><tspan x="25.67" y="0">A</tspan></text><text class="cls-1" transform="translate(2406.16 1133.45)"><tspan class="cls-2">T</tspan><tspan class="cls-46" x="7.77" y="0">I</tspan><tspan class="cls-49" x="11.28" y="0">B</tspan><tspan class="cls-50" x="20" y="0">E</tspan><tspan x="28.04" y="0">T</tspan></text><text class="cls-1" transform="translate(3085.7 1164.32)"><tspan class="cls-51">C</tspan><tspan class="cls-52" x="9.09" y="0">H</tspan><tspan class="cls-53" x="18.5" y="0">I</tspan><tspan class="cls-2" x="22" y="0">N</tspan><tspan x="31.4" y="0">A</tspan></text><text class="cls-54" transform="translate(3442.14 965.66)">K<tspan class="cls-55" x="8.04" y="0">O</tspan><tspan class="cls-56" x="17.86" y="0">R</tspan><tspan class="cls-57" x="26.28" y="0">E</tspan><tspan class="cls-58" x="34.36" y="0">A</tspan></text><text class="cls-1" transform="translate(2005.18 925.54)"><tspan class="cls-59">S</tspan><tspan class="cls-60" x="8.44" y="0">O</tspan><tspan class="cls-61" x="18.29" y="0">G</tspan><tspan class="cls-47" x="27.85" y="0">D</tspan><tspan class="cls-48" x="37.12" y="0">I</tspan><tspan x="40.67" y="0">A</tspan><tspan class="cls-2" x="49.68" y="0">N</tspan><tspan x="59.08" y="0">A</tspan></text><g id="_1" data-name="1"><circle class="cls-62" cx="1428.99" cy="1119.99" r="23.81"/><text class="cls-63" transform="translate(1422.01 1131.41)">1</text></g><g id="_2" data-name="2"><circle class="cls-62" cx="1616.31" cy="1233.74" r="23.81"/><text class="cls-63" transform="translate(1606.58 1245.16)">2</text></g><g id="_4" data-name="4"><circle class="cls-62" cx="3153.55" cy="1038.03" r="23.81"/><text class="cls-64" transform="translate(3143.77 1049.45)">4</text></g><g id="_7" data-name="7"><circle class="cls-62" cx="3020.13" cy="1092.84" r="23.81"/><text class="cls-64" transform="translate(3011.5 1104.26)">7</text></g><g id="_3" data-name="3"><circle class="cls-62" cx="3506.59" cy="1036.86" r="23.81"/><text class="cls-64" transform="translate(3496.66 1048.28)">3</text></g><g id="_5" data-name="5"><circle class="cls-62" cx="607.14" cy="771.43" r="23.81"/><text class="cls-63" transform="translate(597.29 782.85)">5</text></g><g id="_6" data-name="6"><circle class="cls-62" cx="2500.2" cy="1165.14" r="23.81"/><text class="cls-64" transform="translate(2490.05 1176.56)">6</text></g><text class="cls-1" transform="translate(1590.87 1110.15)"><tspan class="cls-41">I</tspan><tspan class="cls-36" x="3.5" y="0">R</tspan><tspan x="12.33" y="0">AN</tspan></text><text class="cls-1" transform="translate(1352.1 1085.33)"><tspan class="cls-47">M</tspan><tspan class="cls-65" x="11.67" y="0">E</tspan><tspan class="cls-66" x="19.38" y="0">S</tspan><tspan class="cls-67" x="27.83" y="0">O</tspan><tspan class="cls-68" x="37.64" y="0">P</tspan><tspan class="cls-69" x="45.67" y="0">O</tspan><tspan class="cls-70" x="55.17" y="0">T</tspan><tspan class="cls-37" x="61.9" y="0">A</tspan><tspan class="cls-71" x="70.91" y="0">M</tspan><tspan class="cls-2" x="82.57" y="0">I</tspan><tspan x="86.13" y="0">A</tspan></text></svg>