<svg id="_4_-_ROME" data-name="4 - ROME" xmlns="http://www.w3.org/2000/svg" viewBox="0 0 3840 2160"><defs><style>.cls-1,.cls-15,.cls-21,.cls-38,.cls-53,.cls-8{font-size:12.42px;}.cls-1,.cls-21,.cls-38,.cls-50,.cls-53,.cls-8{fill:#231f20;}.cls-1,.cls-21,.cls-38,.cls-53,.cls-8{font-family:NeutralStd-RegularItalic, Neutral Std;font-style:italic;}.cls-1{letter-spacing:0.35em;}.cls-2{letter-spacing:0.34em;}.cls-3{letter-spacing:0.34em;}.cls-4{letter-spacing:0.34em;}.cls-5{letter-spacing:0.35em;}.cls-6{letter-spacing:0.35em;}.cls-7{letter-spacing:0.35em;}.cls-8{letter-spacing:0.36em;}.cls-9{letter-spacing:0.34em;}.cls-10{letter-spacing:0.34em;}.cls-11{letter-spacing:0.34em;}.cls-12{letter-spacing:0.34em;}.cls-13{letter-spacing:0.34em;}.cls-14{letter-spacing:0.35em;}.cls-15{fill:#939598;}.cls-15,.cls-51,.cls-52{font-family:NeutralStd-Regular, Neutral Std;}.cls-16{letter-spacing:0em;}.cls-17{letter-spacing:-0.09em;}.cls-18{letter-spacing:-0.03em;}.cls-19{letter-spacing:0em;}.cls-20{letter-spacing:0em;}.cls-21{letter-spacing:0.35em;}.cls-22{letter-spacing:0.34em;}.cls-23{letter-spacing:0.34em;}.cls-24{letter-spacing:0.35em;}.cls-25{letter-spacing:0.34em;}.cls-26{letter-spacing:0.33em;}.cls-27{letter-spacing:0.34em;}.cls-28{letter-spacing:0.02em;}.cls-29{letter-spacing:0em;}.cls-30{letter-spacing:0em;}.cls-31{letter-spacing:0em;}.cls-32{letter-spacing:-0.02em;}.cls-33{letter-spacing:0em;}.cls-34{letter-spacing:-0.01em;}.cls-35{letter-spacing:-0.01em;}.cls-36{letter-spacing:0em;}.cls-37{letter-spacing:0.03em;}.cls-38{letter-spacing:0.35em;}.cls-39{letter-spacing:0.35em;}.cls-40{letter-spacing:0.34em;}.cls-41{letter-spacing:0.34em;}.cls-42{letter-spacing:0.33em;}.cls-43{letter-spacing:0.34em;}.cls-44{letter-spacing:0.34em;}.cls-45{letter-spacing:0.34em;}.cls-46{letter-spacing:0.34em;}.cls-47{letter-spacing:0em;}.cls-48{letter-spacing:0em;}.cls-49{letter-spacing:0em;}.cls-51,.cls-52{font-size:31.04px;fill:#fff;}.cls-51{letter-spacing:-0.02em;}.cls-52{letter-spacing:-0.03em;}.cls-53{letter-spacing:0.35em;}.cls-54{letter-spacing:0.34em;}.cls-55{letter-spacing:0.34em;}.cls-56{letter-spacing:0.35em;}.cls-57{letter-spacing:0.34em;}.cls-58{letter-spacing:0.35em;}.cls-59{letter-spacing:-0.02em;}.cls-60{letter-spacing:-0.04em;}.cls-61{letter-spacing:0em;}.cls-62{letter-spacing:0.01em;}.cls-63{letter-spacing:0em;}.cls-64{letter-spacing:-0.01em;}.cls-65{letter-spacing:-0.01em;}.cls-66{letter-spacing:-0.05em;}.cls-67{letter-spacing:-0.01em;}.cls-68{letter-spacing:0em;}.cls-69{letter-spacing:0em;}.cls-70{letter-spacing:-0.01em;}</style></defs><title>roman</title><text class="cls-1" transform="translate(1118.27 809.93)">B<tspan class="cls-2" x="12.86" y="0">l</tspan><tspan class="cls-3" x="20.26" y="0">a</tspan><tspan class="cls-4" x="31.5" y="0">c</tspan><tspan class="cls-5" x="42.55" y="0">k </tspan><tspan class="cls-6" x="61.12" y="0">S</tspan><tspan class="cls-7" x="73.58" y="0">e</tspan><tspan class="cls-5" x="85.08" y="0">a</tspan></text><text class="cls-8" transform="translate(1531.15 836.54)">C<tspan class="cls-9" x="13.36" y="0">a</tspan><tspan class="cls-10" x="24.57" y="0">s</tspan><tspan class="cls-11" x="35.05" y="0">p</tspan><tspan class="cls-12" x="46.95" y="0">i</tspan><tspan class="cls-13" x="54.37" y="0">a</tspan><tspan class="cls-5" x="65.58" y="0">n</tspan><tspan class="cls-6"><tspan x="21" y="13.19">S</tspan><tspan class="cls-7" x="33.46" y="13.19">e</tspan><tspan class="cls-14" x="44.96" y="13.19">a</tspan></tspan></text><text class="cls-15" transform="translate(1084.15 947.22)">A<tspan class="cls-16" x="9.01" y="0">N</tspan><tspan class="cls-17" x="18.41" y="0">A</tspan><tspan class="cls-18" x="26.37" y="0">T</tspan><tspan class="cls-19" x="33.78" y="0">O</tspan><tspan class="cls-20" x="43.6" y="0">L</tspan><tspan class="cls-16" x="50.88" y="0">I</tspan><tspan x="54.43" y="0">A</tspan></text><text class="cls-21" transform="translate(801.48 770.56)">D<tspan class="cls-13" x="13.34" y="0">a</tspan><tspan class="cls-22" x="24.55" y="0">n</tspan><tspan class="cls-23" x="36.11" y="0">u</tspan><tspan class="cls-5" x="47.71" y="0">be</tspan><tspan class="cls-24"><tspan x="10.02" y="13.19">R</tspan><tspan class="cls-25" x="22.53" y="13.19">i</tspan><tspan class="cls-26" x="29.92" y="13.19">v</tspan><tspan class="cls-27" x="40.68" y="13.19">e</tspan><tspan class="cls-5" x="52.16" y="13.19">r</tspan></tspan></text><text class="cls-15" transform="translate(1444.13 1411.74)">A<tspan class="cls-28" x="9.01" y="0">R</tspan><tspan class="cls-29" x="17.84" y="0">A</tspan><tspan class="cls-30" x="26.85" y="0">B</tspan><tspan class="cls-16" x="35.58" y="0">I</tspan><tspan x="39.14" y="0">AN</tspan><tspan class="cls-31" x="-7.26" y="13.97">P</tspan><tspan class="cls-32" x="0.61" y="13.97">E</tspan><tspan class="cls-33" x="8.29" y="13.97">NI</tspan><tspan class="cls-34" x="21.15" y="13.97">N</tspan><tspan class="cls-35" x="30.42" y="13.97">S</tspan><tspan class="cls-36" x="38.8" y="13.97">U</tspan><tspan class="cls-37" x="48.12" y="13.97">L</tspan><tspan x="55.81" y="13.97">A</tspan></text><text class="cls-38" transform="translate(690.85 1091.5)">M<tspan class="cls-39" x="15.78" y="0">e</tspan><tspan class="cls-40" x="27.37" y="0">d</tspan><tspan class="cls-41" x="39.33" y="0">i</tspan><tspan class="cls-42" x="46.81" y="0">t</tspan><tspan class="cls-27" x="55.51" y="0">e</tspan><tspan class="cls-43" x="67" y="0">r</tspan><tspan class="cls-44" x="75.96" y="0">r</tspan><tspan class="cls-45" x="84.96" y="0">a</tspan><tspan class="cls-46" x="96.17" y="0">ne</tspan><tspan class="cls-13" x="119.3" y="0">a</tspan><tspan class="cls-5" x="130.51" y="0">n </tspan><tspan class="cls-6" x="149.73" y="0">S</tspan><tspan class="cls-7" x="162.19" y="0">e</tspan><tspan class="cls-14" x="173.69" y="0">a</tspan></text><text class="cls-15" transform="translate(2236.69 1435.69)"><tspan class="cls-47">IN</tspan><tspan class="cls-48" x="12.85" y="0">D</tspan><tspan class="cls-49" x="22.12" y="0">I</tspan><tspan x="25.67" y="0">A</tspan></text><path class="cls-50" d="M633.84,837.51a2.78,2.78,0,1,0-2.78,2.78A2.77,2.77,0,0,0,633.84,837.51Z"/><path class="cls-50" d="M829.58,921.57a2.78,2.78,0,1,0-2.78,2.78A2.78,2.78,0,0,0,829.58,921.57Z"/><g id="_2" data-name="2"><circle class="cls-50" cx="627.18" cy="834.37" r="23.81"/><text class="cls-51" transform="translate(617.45 845.79)">2</text></g><g id="_1" data-name="1"><circle class="cls-50" cx="2169.56" cy="1038.7" r="23.81"/><text class="cls-52" transform="translate(2162.58 1050.12)">1</text></g><g id="_3" data-name="3"><circle class="cls-50" cx="1771.61" cy="979.21" r="23.81"/><text class="cls-51" transform="translate(1761.68 990.63)">3</text></g><g id="_4" data-name="4"><circle class="cls-50" cx="1231.77" cy="1035.15" r="23.81"/><text class="cls-51" transform="translate(1221.99 1046.57)">4</text></g><g id="_5" data-name="5"><circle class="cls-50" cx="694.89" cy="890.9" r="23.81"/><text class="cls-51" transform="translate(685.04 902.32)">5</text></g><g id="_6" data-name="6"><circle class="cls-50" cx="818.2" cy="918.27" r="23.81"/><text class="cls-51" transform="translate(808.05 929.69)">6</text></g><text class="cls-53" transform="translate(2042.93 1218.15)">I<tspan class="cls-11" x="7.79" y="0">n</tspan><tspan class="cls-54" x="19.43" y="0">d</tspan><tspan class="cls-55" x="31.32" y="0">u</tspan><tspan class="cls-14" x="42.9" y="0">s </tspan><tspan class="cls-56"><tspan x="4.89" y="13.19">R</tspan><tspan class="cls-2" x="17.39" y="13.19">i</tspan><tspan class="cls-26" x="24.79" y="13.19">v</tspan><tspan class="cls-57" x="35.54" y="13.19">e</tspan><tspan class="cls-58" x="47.02" y="13.19">r</tspan></tspan></text><text class="cls-15" transform="translate(1030.01 1292.46)"><tspan class="cls-59">E</tspan><tspan class="cls-60" x="7.6" y="0">G</tspan><tspan class="cls-61" x="16.73" y="0">Y</tspan><tspan class="cls-62" x="24.94" y="0">P</tspan><tspan x="33" y="0">T</tspan></text><text class="cls-15" transform="translate(878.37 1008.87)"><tspan class="cls-63">G</tspan><tspan class="cls-64" x="9.56" y="0">R</tspan><tspan class="cls-32" x="17.98" y="0">E</tspan><tspan class="cls-59" x="25.66" y="0">E</tspan><tspan class="cls-65" x="33.26" y="0">C</tspan><tspan x="42.35" y="0">E</tspan></text><text class="cls-15" transform="translate(1590.87 1110.15)"><tspan class="cls-33">I</tspan><tspan class="cls-28" x="3.5" y="0">R</tspan><tspan x="12.33" y="0">AN</tspan></text><text class="cls-15" transform="translate(1666.14 1024.9)"><tspan class="cls-66">P</tspan><tspan x="7.25" y="0">A</tspan><tspan class="cls-67" x="16.26" y="0">R</tspan><tspan class="cls-16" x="24.68" y="0">T</tspan><tspan class="cls-61" x="32.45" y="0">HA</tspan></text><text class="cls-15" transform="translate(2121.82 1086.9)"><tspan class="cls-68">G</tspan><tspan x="9.65" y="0">A</tspan><tspan class="cls-69" x="18.66" y="0">N</tspan><tspan class="cls-70" x="28.02" y="0">D</tspan><tspan class="cls-61" x="37.26" y="0">HA</tspan><tspan class="cls-28" x="55.74" y="0">R</tspan><tspan x="64.56" y="0">A</tspan></text></svg>