<svg id="_1_-_BRONZE" data-name="1 - BRONZE" xmlns="http://www.w3.org/2000/svg" viewBox="0 0 4096 2190"><defs><style>.cls-1,.cls-28,.cls-50,.cls-52,.cls-55,.cls-63{font-size:13.27px;}.cls-1{fill:#939598;}.cls-1,.cls-70{font-family:NeutralStd-Regular, Neutral Std;}.cls-2{letter-spacing:0em;}.cls-3{letter-spacing:-0.01em;}.cls-4{letter-spacing:-0.02em;}.cls-5{letter-spacing:-0.03em;}.cls-6{letter-spacing:-0.01em;}.cls-7{letter-spacing:0em;}.cls-8{letter-spacing:0em;}.cls-9{letter-spacing:-0.09em;}.cls-10{letter-spacing:-0.03em;}.cls-11{letter-spacing:0em;}.cls-12{letter-spacing:0em;}.cls-13{letter-spacing:-0.04em;}.cls-14{letter-spacing:0.01em;}.cls-15{letter-spacing:0.02em;}.cls-16{letter-spacing:0em;}.cls-17{letter-spacing:-0.02em;}.cls-18{letter-spacing:-0.01em;}.cls-19{letter-spacing:-0.01em;}.cls-20{letter-spacing:-0.01em;}.cls-21{letter-spacing:0em;}.cls-22{letter-spacing:0.03em;}.cls-23{letter-spacing:0.01em;}.cls-24{letter-spacing:-0.07em;}.cls-25{letter-spacing:0em;}.cls-26{letter-spacing:0em;}.cls-27{letter-spacing:0em;}.cls-28,.cls-42,.cls-50,.cls-52,.cls-55,.cls-63,.cls-69{fill:#231f20;}.cls-28,.cls-42,.cls-50,.cls-52,.cls-55,.cls-63{font-family:NeutralStd-RegularItalic, Neutral Std;font-style:italic;}.cls-28{letter-spacing:0.35em;}.cls-29{letter-spacing:0.35em;}.cls-30{letter-spacing:0.34em;}.cls-31{letter-spacing:0.34em;}.cls-32{letter-spacing:0.33em;}.cls-33{letter-spacing:0.34em;}.cls-34{letter-spacing:0.34em;}.cls-35{letter-spacing:0.34em;}.cls-36{letter-spacing:0.34em;}.cls-37{letter-spacing:0.34em;}.cls-38{letter-spacing:0.35em;}.cls-39{letter-spacing:0.35em;}.cls-40{letter-spacing:0.35em;}.cls-41{letter-spacing:0.35em;}.cls-42{font-size:13.27px;letter-spacing:0.35em;}.cls-43{letter-spacing:0.34em;}.cls-44{letter-spacing:0.34em;}.cls-45{letter-spacing:0.35em;}.cls-46{letter-spacing:0.35em;}.cls-47{letter-spacing:0.34em;}.cls-48{letter-spacing:0.33em;}.cls-49{letter-spacing:0.34em;}.cls-50{letter-spacing:0.34em;}.cls-51{letter-spacing:0.35em;}.cls-52{letter-spacing:0.33em;}.cls-53{letter-spacing:0.34em;}.cls-54{letter-spacing:0.34em;}.cls-55{letter-spacing:0.35em;}.cls-56{letter-spacing:0.34em;}.cls-57{letter-spacing:0.34em;}.cls-58{letter-spacing:0.34em;}.cls-59{letter-spacing:0.35em;}.cls-60{letter-spacing:0.35em;}.cls-61{letter-spacing:0.34em;}.cls-62{letter-spacing:0.33em;}.cls-63{letter-spacing:0.31em;}.cls-64{letter-spacing:0.34em;}.cls-65{letter-spacing:0.34em;}.cls-66{letter-spacing:0.34em;}.cls-67{letter-spacing:0.34em;}.cls-68{letter-spacing:0.33em;}.cls-70{font-size:33.17px;fill:#fff;letter-spacing:-0.02em;}.cls-71{fill:none;stroke:#000;stroke-miterlimit:10;stroke-width:1.18px;}</style></defs><title>bronze</title><text class="cls-1" transform="translate(900.84 963.79)"><tspan class="cls-2">G</tspan><tspan class="cls-3" x="10.22" y="0">R</tspan><tspan class="cls-4" x="19.21" y="0">E</tspan><tspan class="cls-5" x="27.41" y="0">E</tspan><tspan class="cls-6" x="35.53" y="0">C</tspan><tspan x="45.24" y="0">E</tspan></text><text class="cls-1" transform="translate(1155.05 953.65)"><tspan class="cls-7">A</tspan><tspan class="cls-8" x="9.62" y="0">N</tspan><tspan class="cls-9" x="19.67" y="0">A</tspan><tspan class="cls-10" x="28.16" y="0">T</tspan><tspan class="cls-11" x="36.08" y="0">O</tspan><tspan class="cls-12" x="46.56" y="0">L</tspan><tspan class="cls-8" x="54.34" y="0">I</tspan><tspan x="58.14" y="0">A</tspan></text><text class="cls-1" transform="translate(1027.28 1322.59)"><tspan class="cls-5">E</tspan><tspan class="cls-13" x="8.12" y="0">G</tspan><tspan class="cls-7" x="17.87" y="0">Y</tspan><tspan class="cls-14" x="26.63" y="0">P</tspan><tspan x="35.25" y="0">T</tspan></text><text class="cls-1" transform="translate(1540.3 1450.05)"><tspan class="cls-7">A</tspan><tspan class="cls-15" x="9.62" y="0">R</tspan><tspan class="cls-7" x="19.05" y="0">A</tspan><tspan x="28.67" y="0">B</tspan><tspan class="cls-8" x="38" y="0">I</tspan><tspan class="cls-7" x="41.79" y="0">A</tspan><tspan x="51.42" y="0">N</tspan><tspan class="cls-16" x="-7.77" y="14.93">P</tspan><tspan class="cls-17" x="0.64" y="14.93">E</tspan><tspan class="cls-18" x="8.85" y="14.93">NI</tspan><tspan class="cls-19" x="22.58" y="14.93">N</tspan><tspan class="cls-20" x="32.48" y="14.93">S</tspan><tspan class="cls-21" x="41.44" y="14.93">U</tspan><tspan class="cls-22" x="51.39" y="14.93">L</tspan><tspan x="59.61" y="14.93">A</tspan></text><text class="cls-1" transform="translate(1297.81 1147.13)"><tspan class="cls-12">L</tspan><tspan class="cls-23" x="7.78" y="0">E</tspan><tspan class="cls-24" x="16.37" y="0">V</tspan><tspan class="cls-25" x="24.93" y="0">A</tspan><tspan class="cls-26" x="34.56" y="0">N</tspan><tspan x="44.6" y="0">T</tspan></text><text class="cls-1" transform="translate(989.51 1100.36)"><tspan class="cls-6">C</tspan><tspan class="cls-3" x="9.71" y="0">R</tspan><tspan class="cls-23" x="18.7" y="0">E</tspan><tspan class="cls-8" x="27.29" y="0">T</tspan><tspan x="35.6" y="0">E</tspan></text><text class="cls-1" transform="translate(1018.6 1603.33)"><tspan class="cls-27">NU</tspan><tspan x="19.97" y="0">B</tspan><tspan class="cls-8" x="29.29" y="0">I</tspan><tspan x="33.09" y="0">A</tspan></text><text class="cls-28" transform="translate(735.31 1107.83)">M<tspan class="cls-29" x="16.86" y="0">e</tspan><tspan class="cls-30" x="29.25" y="0">d</tspan><tspan class="cls-31" x="42.03" y="0">i</tspan><tspan class="cls-32" x="50.02" y="0">t</tspan><tspan class="cls-33" x="59.32" y="0">e</tspan><tspan class="cls-34" x="71.59" y="0">r</tspan><tspan class="cls-35" x="81.17" y="0">r</tspan><tspan class="cls-36" x="90.78" y="0">a</tspan><tspan class="cls-37" x="102.76" y="0">n</tspan><tspan class="cls-38" x="115.2" y="0">e</tspan><tspan class="cls-36" x="127.49" y="0">a</tspan><tspan class="cls-39" x="139.47" y="0">n </tspan><tspan class="cls-40" x="160" y="0">S</tspan><tspan class="cls-38" x="173.31" y="0">e</tspan><tspan class="cls-41" x="185.6" y="0">a</tspan></text><text class="cls-42" transform="matrix(1, 0.01, -0.01, 1, 1142.7, 1482.01)">N<tspan class="cls-43" x="14.45" y="0">i</tspan><tspan class="cls-44" x="22.4" y="0">l</tspan><tspan class="cls-45" x="30.39" y="0">e</tspan><tspan class="cls-46"><tspan x="-5.99" y="14.1">R</tspan><tspan class="cls-47" x="7.38" y="14.1">i</tspan><tspan class="cls-48" x="15.28" y="14.1">v</tspan><tspan class="cls-49" x="26.77" y="14.1">e</tspan><tspan class="cls-45" x="39.04" y="14.1">r</tspan></tspan></text><text class="cls-50" transform="translate(1315.39 1439.82)">R<tspan class="cls-51" x="13.27" y="0">e</tspan><tspan class="cls-39" x="25.66" y="0">d</tspan><tspan class="cls-40"><tspan x="0.43" y="14.1">S</tspan><tspan class="cls-38" x="13.74" y="14.1">e</tspan><tspan class="cls-39" x="26.03" y="14.1">a</tspan></tspan></text><text class="cls-52" transform="translate(963.79 939.82)">A<tspan class="cls-39" x="13.87" y="0">e</tspan><tspan class="cls-53" x="26.22" y="0">g</tspan><tspan class="cls-38" x="39.08" y="0">e</tspan><tspan class="cls-54" x="51.37" y="0">a</tspan><tspan class="cls-39" x="63.35" y="0">n</tspan><tspan class="cls-40"><tspan x="19.08" y="14.1">S</tspan><tspan class="cls-38" x="32.39" y="14.1">e</tspan><tspan class="cls-39" x="44.68" y="14.1">a</tspan></tspan></text><text class="cls-55" transform="translate(1470.52 1082.73)">T<tspan class="cls-56" x="12.78" y="0">i</tspan><tspan class="cls-57" x="20.73" y="0">g</tspan><tspan class="cls-34" x="33.59" y="0">r</tspan><tspan class="cls-58" x="43.17" y="0">i</tspan><tspan class="cls-59" x="51.1" y="0">s</tspan><tspan class="cls-60"><tspan x="3.84" y="14.1">R</tspan><tspan class="cls-61" x="17.2" y="14.1">i</tspan><tspan class="cls-62" x="25.1" y="14.1">v</tspan><tspan class="cls-33" x="36.6" y="14.1">e</tspan><tspan class="cls-41" x="48.87" y="14.1">r</tspan></tspan></text><text class="cls-63" transform="translate(1446.31 1168.38)">E<tspan class="cls-64" x="12.58" y="0">u</tspan><tspan class="cls-65" x="24.96" y="0">p</tspan><tspan class="cls-66" x="37.68" y="0">h</tspan><tspan class="cls-67" x="50.09" y="0">r</tspan><tspan class="cls-68" x="59.7" y="0">a</tspan><tspan class="cls-32" x="71.55" y="0">t</tspan><tspan class="cls-39" x="80.85" y="0">es</tspan><tspan class="cls-60"><tspan x="24.89" y="14.1">R</tspan><tspan class="cls-61" x="38.25" y="14.1">i</tspan><tspan class="cls-62" x="46.16" y="14.1">v</tspan><tspan class="cls-33" x="57.65" y="14.1">e</tspan><tspan class="cls-41" x="69.92" y="14.1">r</tspan></tspan></text><circle class="cls-69" cx="1222.82" cy="1090.82" r="2.97"/><circle class="cls-69" cx="1240.18" cy="1076.85" r="2.97"/><circle class="cls-69" cx="1290.84" cy="1063.9" r="2.97"/><g id="_1" data-name="1"><circle class="cls-69" cx="1262.05" cy="979.46" r="25.45"/><text class="cls-70" transform="translate(1254.59 991.66)">1</text></g><g id="_2" data-name="2"><circle class="cls-69" cx="1151.59" cy="1552.79" r="25.45"/><text class="cls-70" transform="translate(1141.19 1564.99)">2</text></g><g id="_3" data-name="3"><circle class="cls-69" cx="1064.89" cy="1061.01" r="25.45"/><text class="cls-70" transform="translate(1054.28 1073.22)">3</text></g><g id="_4" data-name="4"><circle class="cls-69" cx="1237.07" cy="1221.99" r="25.45"/><text class="cls-70" transform="translate(1226.63 1234.2)">4</text></g><g id="_5" data-name="5"><circle class="cls-69" cx="1305.05" cy="1221.99" r="25.45"/><text class="cls-70" transform="translate(1294.52 1234.2)">5</text></g><g id="_6" data-name="6"><circle class="cls-69" cx="1542.1" cy="974.52" r="25.45"/><text class="cls-70" transform="translate(1531.25 986.73)">6</text></g><line class="cls-71" x1="1299.92" y1="1201.66" x2="1240.18" y2="1076.85"/><line class="cls-71" x1="1223.52" y1="1091.49" x2="1236.35" y2="1200.67"/><line class="cls-71" x1="1519.66" y1="982.52" x2="1291.04" y2="1064.25"/></svg>