<svg id="_2_-_IRON" data-name="2 - IRON" xmlns="http://www.w3.org/2000/svg" viewBox="0 0 4096 2190"><defs><style>.cls-1,.cls-100,.cls-25,.cls-31,.cls-54,.cls-75,.cls-8,.cls-80,.cls-89{font-size:13.27px;}.cls-1,.cls-54{fill:#939598;}.cls-1,.cls-103,.cls-54{font-family:NeutralStd-Regular, Neutral Std;}.cls-2{letter-spacing:0em;}.cls-3{letter-spacing:0em;}.cls-4{letter-spacing:-0.09em;}.cls-5{letter-spacing:-0.03em;}.cls-6{letter-spacing:0em;}.cls-7{letter-spacing:0em;}.cls-100,.cls-25,.cls-31,.cls-57,.cls-75,.cls-8,.cls-80,.cls-89,.cls-99{fill:#231f20;}.cls-100,.cls-25,.cls-31,.cls-57,.cls-75,.cls-8,.cls-80,.cls-89{font-family:NeutralStd-RegularItalic, Neutral Std;font-style:italic;}.cls-8{letter-spacing:0.31em;}.cls-9{letter-spacing:0.34em;}.cls-10{letter-spacing:0.34em;}.cls-11{letter-spacing:0.34em;}.cls-12{letter-spacing:0.34em;}.cls-13{letter-spacing:0.33em;}.cls-14{letter-spacing:0.33em;}.cls-15{letter-spacing:0.35em;}.cls-16{letter-spacing:0.35em;}.cls-17{letter-spacing:0.34em;}.cls-18{letter-spacing:0.33em;}.cls-19{letter-spacing:0.34em;}.cls-20{letter-spacing:0.35em;}.cls-21{letter-spacing:0.01em;}.cls-22{letter-spacing:-0.07em;}.cls-23{letter-spacing:0em;}.cls-24{letter-spacing:0em;}.cls-25{letter-spacing:0.35em;}.cls-26{letter-spacing:0.34em;}.cls-27{letter-spacing:0.34em;}.cls-28{letter-spacing:0.34em;}.cls-29{letter-spacing:0.34em;}.cls-30{letter-spacing:0.35em;}.cls-31{letter-spacing:0.34em;}.cls-32{letter-spacing:0.34em;}.cls-33{letter-spacing:0.35em;}.cls-34,.cls-80{letter-spacing:0.35em;}.cls-35{letter-spacing:0.34em;}.cls-36{letter-spacing:0.33em;}.cls-37{letter-spacing:0.33em;}.cls-38{letter-spacing:0.34em;}.cls-39{letter-spacing:0.34em;}.cls-40{letter-spacing:0em;}.cls-41{letter-spacing:0.02em;}.cls-42{letter-spacing:-0.01em;}.cls-43{letter-spacing:0em;}.cls-44{letter-spacing:-0.03em;}.cls-45{letter-spacing:-0.04em;}.cls-46{letter-spacing:0.01em;}.cls-47{letter-spacing:0em;}.cls-48{letter-spacing:-0.02em;}.cls-49,.cls-54{letter-spacing:-0.01em;}.cls-50{letter-spacing:-0.01em;}.cls-51{letter-spacing:-0.01em;}.cls-52{letter-spacing:0em;}.cls-53{letter-spacing:0.03em;}.cls-55{letter-spacing:0.02em;}.cls-56{letter-spacing:0em;}.cls-57{font-size:13.27px;letter-spacing:0.35em;}.cls-58{letter-spacing:0.34em;}.cls-59{letter-spacing:0.34em;}.cls-60{letter-spacing:0.35em;}.cls-61{letter-spacing:0.35em;}.cls-62{letter-spacing:0.34em;}.cls-63{letter-spacing:0.33em;}.cls-64{letter-spacing:0.34em;}.cls-65{letter-spacing:0em;}.cls-66{letter-spacing:-0.02em;}.cls-67{letter-spacing:-0.01em;}.cls-68{letter-spacing:0em;}.cls-69{letter-spacing:-0.02em;}.cls-70{letter-spacing:0em;}.cls-71{letter-spacing:0em;}.cls-72{letter-spacing:0.01em;}.cls-73{letter-spacing:-0.03em;}.cls-74{letter-spacing:0em;}.cls-75{letter-spacing:0.35em;}.cls-76{letter-spacing:0.34em;}.cls-77{letter-spacing:0.34em;}.cls-78{letter-spacing:0.35em;}.cls-79{letter-spacing:0.35em;}.cls-81{letter-spacing:0.35em;}.cls-82{letter-spacing:0.34em;}.cls-83{letter-spacing:0.34em;}.cls-84{letter-spacing:0.34em;}.cls-85{letter-spacing:0.34em;}.cls-86{letter-spacing:0.34em;}.cls-87{letter-spacing:0.35em;}.cls-88{letter-spacing:0.35em;}.cls-89{letter-spacing:0.36em;}.cls-90{letter-spacing:0.34em;}.cls-91{letter-spacing:0.34em;}.cls-92{letter-spacing:0.34em;}.cls-93{letter-spacing:0.35em;}.cls-94{letter-spacing:0.34em;}.cls-95{letter-spacing:0.34em;}.cls-96{letter-spacing:-0.02em;}.cls-97{letter-spacing:0em;}.cls-98{letter-spacing:-0.01em;}.cls-100{letter-spacing:0.34em;}.cls-101{letter-spacing:0.35em;}.cls-102{letter-spacing:0.35em;}.cls-103{font-size:33.17px;fill:#fff;letter-spacing:-0.02em;}.cls-104{fill:none;stroke:#000;stroke-miterlimit:10;stroke-width:1.18px;}</style></defs><title>iron</title><text class="cls-1" transform="translate(1156.19 954.79)"><tspan class="cls-2">A</tspan><tspan class="cls-3" x="9.62" y="0">N</tspan><tspan class="cls-4" x="19.67" y="0">A</tspan><tspan class="cls-5" x="28.16" y="0">T</tspan><tspan class="cls-6" x="36.08" y="0">O</tspan><tspan class="cls-7" x="46.56" y="0">L</tspan><tspan class="cls-3" x="54.34" y="0">I</tspan><tspan x="58.14" y="0">A</tspan></text><text class="cls-8" transform="translate(1446.04 1168.37)">E<tspan class="cls-9" x="12.58" y="0">u</tspan><tspan class="cls-10" x="24.96" y="0">p</tspan><tspan class="cls-11" x="37.68" y="0">h</tspan><tspan class="cls-12" x="50.09" y="0">r</tspan><tspan class="cls-13" x="59.7" y="0">a</tspan><tspan class="cls-14" x="71.55" y="0">t</tspan><tspan class="cls-15" x="80.85" y="0">es</tspan><tspan class="cls-16"><tspan x="24.89" y="14.1">R</tspan><tspan class="cls-17" x="38.25" y="14.1">i</tspan><tspan class="cls-18" x="46.16" y="14.1">v</tspan><tspan class="cls-19" x="57.65" y="14.1">e</tspan><tspan class="cls-20" x="69.92" y="14.1">r</tspan></tspan></text><text class="cls-1" transform="translate(1297.81 1147.13)"><tspan class="cls-7">L</tspan><tspan class="cls-21" x="7.78" y="0">E</tspan><tspan class="cls-22" x="16.37" y="0">V</tspan><tspan class="cls-23" x="24.93" y="0">A</tspan><tspan class="cls-24" x="34.56" y="0">N</tspan><tspan x="44.6" y="0">T</tspan></text><text class="cls-25" transform="translate(1470.52 1082.73)">T<tspan class="cls-26" x="12.78" y="0">i</tspan><tspan class="cls-27" x="20.73" y="0">g</tspan><tspan class="cls-28" x="33.59" y="0">r</tspan><tspan class="cls-29" x="43.17" y="0">i</tspan><tspan class="cls-30" x="51.1" y="0">s</tspan><tspan class="cls-16"><tspan x="3.84" y="14.1">R</tspan><tspan class="cls-17" x="17.2" y="14.1">i</tspan><tspan class="cls-18" x="25.1" y="14.1">v</tspan><tspan class="cls-19" x="36.6" y="14.1">e</tspan><tspan class="cls-20" x="48.87" y="14.1">r</tspan></tspan></text><text class="cls-31" transform="translate(1627.65 1141.57)">Z<tspan class="cls-32" x="12.81" y="0">ag</tspan><tspan class="cls-12" x="37.65" y="0">r</tspan><tspan class="cls-33" x="47.26" y="0">o</tspan><tspan class="cls-15" x="59.81" y="0">s</tspan><tspan class="cls-34"><tspan x="-17.96" y="14.1">M</tspan><tspan class="cls-35" x="-1.1" y="14.1">ou</tspan><tspan class="cls-36" x="23.77" y="14.1">n</tspan><tspan class="cls-37" x="36.07" y="14.1">t</tspan><tspan class="cls-38" x="45.43" y="14.1">a</tspan><tspan class="cls-26" x="57.41" y="14.1">i</tspan><tspan class="cls-39" x="65.36" y="14.1">n</tspan><tspan class="cls-30" x="77.77" y="14.1">s</tspan></tspan></text><text class="cls-1" transform="translate(1471.22 960.81)"><tspan class="cls-40">U</tspan><tspan class="cls-41" x="9.96" y="0">R</tspan><tspan class="cls-2" x="19.38" y="0">A</tspan><tspan class="cls-42" x="29.01" y="0">R</tspan><tspan class="cls-43" x="38" y="0">T</tspan><tspan x="46.34" y="0">U</tspan></text><text class="cls-1" transform="translate(1027.28 1322.59)"><tspan class="cls-44">E</tspan><tspan class="cls-45" x="8.12" y="0">G</tspan><tspan class="cls-2" x="17.87" y="0">Y</tspan><tspan class="cls-46" x="26.63" y="0">P</tspan><tspan x="35.25" y="0">T</tspan></text><text class="cls-1" transform="translate(1540.3 1450.05)"><tspan class="cls-2">A</tspan><tspan class="cls-41" x="9.62" y="0">R</tspan><tspan class="cls-2" x="19.05" y="0">A</tspan><tspan x="28.67" y="0">B</tspan><tspan class="cls-3" x="38" y="0">I</tspan><tspan class="cls-2" x="41.79" y="0">A</tspan><tspan x="51.42" y="0">N</tspan><tspan class="cls-47" x="-7.77" y="14.93">P</tspan><tspan class="cls-48" x="0.64" y="14.93">E</tspan><tspan class="cls-49" x="8.85" y="14.93">NI</tspan><tspan class="cls-50" x="22.58" y="14.93">N</tspan><tspan class="cls-51" x="32.48" y="14.93">S</tspan><tspan class="cls-52" x="41.44" y="14.93">U</tspan><tspan class="cls-53" x="51.39" y="14.93">L</tspan><tspan x="59.61" y="14.93">A</tspan></text><text class="cls-54" transform="translate(1782.58 1168.37)">I<tspan class="cls-55" x="3.74" y="0">R</tspan><tspan class="cls-23" x="13.17" y="0">A</tspan><tspan class="cls-56" x="22.79" y="0">N</tspan></text><text class="cls-57" transform="matrix(1, 0.01, -0.01, 1, 1142.7, 1482.01)">N<tspan class="cls-58" x="14.45" y="0">i</tspan><tspan class="cls-59" x="22.4" y="0">l</tspan><tspan class="cls-60" x="30.39" y="0">e</tspan><tspan class="cls-61"><tspan x="-5.99" y="14.1">R</tspan><tspan class="cls-62" x="7.38" y="14.1">i</tspan><tspan class="cls-63" x="15.28" y="14.1">v</tspan><tspan class="cls-64" x="26.77" y="14.1">e</tspan><tspan class="cls-60" x="39.04" y="14.1">r</tspan></tspan></text><text class="cls-1" transform="translate(887.62 962.9)"><tspan class="cls-65">G</tspan><tspan class="cls-42" x="10.22" y="0">R</tspan><tspan class="cls-66" x="19.21" y="0">E</tspan><tspan class="cls-44" x="27.41" y="0">E</tspan><tspan class="cls-67" x="35.53" y="0">C</tspan><tspan x="45.24" y="0">E</tspan></text><text class="cls-1" transform="translate(1403.09 1121.82)"><tspan class="cls-68">M</tspan><tspan class="cls-69" x="12.47" y="0">E</tspan><tspan class="cls-70" x="20.71" y="0">S</tspan><tspan class="cls-71" x="29.73" y="0">O</tspan><tspan class="cls-72" x="40.21" y="0">P</tspan><tspan class="cls-73" x="48.78" y="0">O</tspan><tspan class="cls-4" x="58.94" y="0">T</tspan><tspan class="cls-2" x="66.12" y="0">A</tspan><tspan class="cls-74" x="75.74" y="0">M</tspan><tspan class="cls-3" x="88.21" y="0">I</tspan><tspan x="92" y="0">A</tspan></text><text class="cls-75" transform="translate(1192.06 806.95)">B<tspan class="cls-76" x="13.74" y="0">l</tspan><tspan class="cls-77" x="21.65" y="0">a</tspan><tspan class="cls-9" x="33.66" y="0">c</tspan><tspan class="cls-15" x="45.47" y="0">k </tspan><tspan class="cls-78" x="65.31" y="0">S</tspan><tspan class="cls-79" x="78.62" y="0">e</tspan><tspan class="cls-15" x="90.91" y="0">a</tspan></text><text class="cls-80" transform="translate(735.31 1107.83)">M<tspan class="cls-81" x="16.86" y="0">e</tspan><tspan class="cls-82" x="29.25" y="0">d</tspan><tspan class="cls-83" x="42.03" y="0">i</tspan><tspan class="cls-14" x="50.02" y="0">t</tspan><tspan class="cls-19" x="59.32" y="0">e</tspan><tspan class="cls-28" x="71.59" y="0">r</tspan><tspan class="cls-84" x="81.17" y="0">r</tspan><tspan class="cls-85" x="90.78" y="0">a</tspan><tspan class="cls-86" x="102.76" y="0">n</tspan><tspan class="cls-87" x="115.2" y="0">e</tspan><tspan class="cls-85" x="127.49" y="0">a</tspan><tspan class="cls-15" x="139.47" y="0">n </tspan><tspan class="cls-88" x="160" y="0">S</tspan><tspan class="cls-87" x="173.31" y="0">e</tspan><tspan class="cls-20" x="185.6" y="0">a</tspan></text><text class="cls-89" transform="translate(1633.28 835.38)">C<tspan class="cls-82" x="14.28" y="0">a</tspan><tspan class="cls-90" x="26.26" y="0">s</tspan><tspan class="cls-86" x="37.45" y="0">p</tspan><tspan class="cls-91" x="50.17" y="0">i</tspan><tspan class="cls-85" x="58.1" y="0">a</tspan><tspan class="cls-15" x="70.07" y="0">n</tspan><tspan class="cls-88"><tspan x="22.45" y="14.1">S</tspan><tspan class="cls-87" x="35.75" y="14.1">e</tspan><tspan class="cls-15" x="48.04" y="14.1">a</tspan></tspan></text><text class="cls-89" transform="translate(1479.01 824.58)">C<tspan class="cls-92" x="14.28" y="0">a</tspan><tspan class="cls-32" x="26.2" y="0">u</tspan><tspan class="cls-93" x="38.6" y="0">c</tspan><tspan class="cls-94" x="50.54" y="0">a</tspan><tspan class="cls-95" x="62.52" y="0">su</tspan><tspan class="cls-15" x="86.03" y="0">s</tspan><tspan class="cls-34"><tspan x="-4.85" y="14.1">M</tspan><tspan class="cls-35" x="12.01" y="14.1">ou</tspan><tspan class="cls-36" x="36.88" y="14.1">n</tspan><tspan class="cls-37" x="49.18" y="14.1">t</tspan><tspan class="cls-38" x="58.54" y="14.1">a</tspan><tspan class="cls-26" x="70.52" y="14.1">i</tspan><tspan class="cls-39" x="78.47" y="14.1">n</tspan><tspan class="cls-30" x="90.88" y="14.1">s</tspan></tspan></text><text class="cls-1" transform="translate(623.27 792.74)"><tspan class="cls-21">E</tspan><tspan class="cls-3" x="8.59" y="0">T</tspan><tspan class="cls-96" x="16.89" y="0">R</tspan><tspan class="cls-97" x="25.78" y="0">U</tspan><tspan class="cls-24" x="35.81" y="0">T</tspan><tspan class="cls-98" x="44.11" y="0">R</tspan><tspan class="cls-3" x="53.11" y="0">I</tspan><tspan x="56.9" y="0">A</tspan></text><circle class="cls-99" cx="663.89" cy="819.27" r="2.97"/><circle class="cls-99" cx="1498.03" cy="1103.87" r="2.97"/><circle class="cls-99" cx="1730.72" cy="1057.84" r="2.97"/><circle class="cls-99" cx="1663.85" cy="1081.97" r="2.97"/><circle class="cls-99" cx="1720.71" cy="1104.08" r="2.97"/><text class="cls-54" transform="translate(1782.58 1168.37)">I<tspan class="cls-55" x="3.74" y="0">R</tspan><tspan class="cls-23" x="13.17" y="0">A</tspan><tspan class="cls-56" x="22.79" y="0">N</tspan></text><text class="cls-100" transform="translate(1987.75 1572)">Ar<tspan class="cls-85" x="23.62" y="0">a</tspan><tspan class="cls-101" x="35.59" y="0">b</tspan><tspan class="cls-91" x="48.33" y="0">i</tspan><tspan class="cls-85" x="56.26" y="0">a</tspan><tspan class="cls-15" x="68.23" y="0">n </tspan><tspan class="cls-78" x="88.77" y="0">S</tspan><tspan class="cls-102" x="102.08" y="0">e</tspan><tspan class="cls-15" x="114.37" y="0">a</tspan></text><g id="_1" data-name="1"><circle class="cls-99" cx="1944.03" cy="1005.91" r="25.45"/><text class="cls-103" transform="translate(1936.56 1018.12)">1</text></g><g id="_2" data-name="2"><circle class="cls-99" cx="1944.03" cy="1157.24" r="25.45"/><text class="cls-103" transform="translate(1933.63 1169.44)">2</text></g><g id="_3" data-name="3"><circle class="cls-99" cx="1365.96" cy="1078.76" r="25.45"/><text class="cls-103" transform="translate(1355.35 1090.96)">3</text></g><g id="_4" data-name="4"><circle class="cls-99" cx="1944.03" cy="1081.57" r="25.45"/><text class="cls-103" transform="translate(1933.58 1093.78)">4</text></g><g id="_5" data-name="5"><circle class="cls-99" cx="966.17" cy="975.11" r="25.45"/><text class="cls-103" transform="translate(955.64 987.32)">5</text></g><g id="_6" data-name="6"><circle class="cls-99" cx="659.75" cy="824.79" r="25.45"/><text class="cls-103" transform="translate(648.9 837)">6</text></g><line class="cls-104" x1="1921.25" y1="1009.79" x2="1732.11" y2="1057.37"/><line class="cls-104" x1="1920.93" y1="1082.61" x2="1665.06" y2="1081.43"/><line class="cls-104" x1="1922.7" y1="1154.57" x2="1721.03" y2="1104.53"/><line class="cls-104" x1="1388.92" y1="1082.28" x2="1498.03" y2="1103.87"/></svg>