<svg id="_1_-_BRONZE" data-name="1 - BRONZE" xmlns="http://www.w3.org/2000/svg" viewBox="0 0 3840 2160"><defs><style>.cls-1,.cls-29,.cls-52,.cls-53,.cls-55,.cls-62{font-size:12.42px;}.cls-1{fill:#939598;}.cls-1,.cls-70{font-family:NeutralStd-Regular, Neutral Std;}.cls-2{letter-spacing:0em;}.cls-3{letter-spacing:-0.01em;}.cls-4{letter-spacing:-0.02em;}.cls-5{letter-spacing:-0.02em;}.cls-6{letter-spacing:-0.01em;}.cls-7{letter-spacing:0em;}.cls-8{letter-spacing:-0.09em;}.cls-9{letter-spacing:-0.03em;}.cls-10{letter-spacing:0em;}.cls-11{letter-spacing:0em;}.cls-12{letter-spacing:-0.04em;}.cls-13{letter-spacing:0em;}.cls-14{letter-spacing:0.01em;}.cls-15{letter-spacing:0.02em;}.cls-16{letter-spacing:0em;}.cls-17{letter-spacing:0em;}.cls-18{letter-spacing:0em;}.cls-19{letter-spacing:0em;}.cls-20{letter-spacing:-0.01em;}.cls-21{letter-spacing:-0.01em;}.cls-22{letter-spacing:0em;}.cls-23{letter-spacing:0.03em;}.cls-24{letter-spacing:0.01em;}.cls-25{letter-spacing:-0.07em;}.cls-26{letter-spacing:-0.01em;}.cls-27{letter-spacing:0.01em;}.cls-28{letter-spacing:0em;}.cls-29,.cls-44,.cls-52,.cls-53,.cls-55,.cls-62,.cls-69{fill:#231f20;}.cls-29,.cls-44,.cls-52,.cls-53,.cls-55,.cls-62{font-family:NeutralStd-RegularItalic, Neutral Std;font-style:italic;}.cls-29{letter-spacing:0.35em;}.cls-30{letter-spacing:0.35em;}.cls-31{letter-spacing:0.34em;}.cls-32{letter-spacing:0.34em;}.cls-33{letter-spacing:0.33em;}.cls-34{letter-spacing:0.34em;}.cls-35{letter-spacing:0.34em;}.cls-36{letter-spacing:0.34em;}.cls-37{letter-spacing:0.34em;}.cls-38{letter-spacing:0.34em;}.cls-39{letter-spacing:0.34em;}.cls-40{letter-spacing:0.35em;}.cls-41{letter-spacing:0.35em;}.cls-42{letter-spacing:0.35em;}.cls-43{letter-spacing:0.35em;}.cls-44{font-size:12.42px;letter-spacing:0.35em;}.cls-45{letter-spacing:0.34em;}.cls-46{letter-spacing:0.34em;}.cls-47{letter-spacing:0.35em;}.cls-48{letter-spacing:0.35em;}.cls-49{letter-spacing:0.34em;}.cls-50{letter-spacing:0.33em;}.cls-51{letter-spacing:0.34em;}.cls-52{letter-spacing:0.34em;}.cls-53{letter-spacing:0.33em;}.cls-54{letter-spacing:0.34em;}.cls-55{letter-spacing:0.35em;}.cls-56{letter-spacing:0.34em;}.cls-57{letter-spacing:0.34em;}.cls-58{letter-spacing:0.34em;}.cls-59{letter-spacing:0.35em;}.cls-60{letter-spacing:0.34em;}.cls-61{letter-spacing:0.33em;}.cls-62{letter-spacing:0.31em;}.cls-63{letter-spacing:0.34em;}.cls-64{letter-spacing:0.34em;}.cls-65{letter-spacing:0.34em;}.cls-66{letter-spacing:0.34em;}.cls-67{letter-spacing:0.33em;}.cls-68{letter-spacing:0.33em;}.cls-70{font-size:31.04px;fill:#fff;letter-spacing:-0.02em;}.cls-71{fill:none;stroke:#000;stroke-miterlimit:10;stroke-width:0.25px;}.cls-72{letter-spacing:0em;}.cls-73{letter-spacing:-0.02em;}.cls-74{letter-spacing:0em;}.cls-75{letter-spacing:0em;}.cls-76{letter-spacing:0.01em;}.cls-77{letter-spacing:-0.03em;}.cls-78{letter-spacing:-0.09em;}.cls-79{letter-spacing:0em;}</style></defs><title>bronze</title><text class="cls-1" transform="translate(845.75 956.7)"><tspan class="cls-2">G</tspan><tspan class="cls-3" x="9.56" y="0">R</tspan><tspan class="cls-4" x="17.98" y="0">E</tspan><tspan class="cls-5" x="25.66" y="0">E</tspan><tspan class="cls-6" x="33.26" y="0">C</tspan><tspan x="42.35" y="0">E</tspan></text><text class="cls-1" transform="translate(1083.62 947.22)">A<tspan class="cls-7" x="9.01" y="0">N</tspan><tspan class="cls-8" x="18.41" y="0">A</tspan><tspan class="cls-9" x="26.37" y="0">T</tspan><tspan class="cls-10" x="33.78" y="0">O</tspan><tspan class="cls-11" x="43.6" y="0">L</tspan><tspan class="cls-7" x="50.88" y="0">I</tspan><tspan x="54.43" y="0">A</tspan></text><text class="cls-1" transform="translate(1030.01 1292.46)"><tspan class="cls-5">E</tspan><tspan class="cls-12" x="7.6" y="0">G</tspan><tspan class="cls-13" x="16.73" y="0">Y</tspan><tspan class="cls-14" x="24.94" y="0">P</tspan><tspan x="33" y="0">T</tspan></text><text class="cls-1" transform="translate(1444.13 1411.74)">A<tspan class="cls-15" x="9.01" y="0">R</tspan><tspan class="cls-16" x="17.84" y="0">A</tspan><tspan class="cls-17" x="26.85" y="0">B</tspan><tspan class="cls-7" x="35.58" y="0">I</tspan><tspan x="39.14" y="0">AN</tspan><tspan class="cls-18" x="-7.26" y="13.97">P</tspan><tspan class="cls-4" x="0.61" y="13.97">E</tspan><tspan class="cls-19" x="8.29" y="13.97">NI</tspan><tspan class="cls-20" x="21.15" y="13.97">N</tspan><tspan class="cls-21" x="30.42" y="13.97">S</tspan><tspan class="cls-22" x="38.8" y="13.97">U</tspan><tspan class="cls-23" x="48.12" y="13.97">L</tspan><tspan x="55.81" y="13.97">A</tspan></text><text class="cls-1" transform="translate(1217.21 1128.27)"><tspan class="cls-22">L</tspan><tspan class="cls-24" x="7.28" y="0">E</tspan><tspan class="cls-25" x="15.33" y="0">V</tspan><tspan x="23.34" y="0">A</tspan><tspan class="cls-7" x="32.36" y="0">N</tspan><tspan x="41.76" y="0">T</tspan></text><text class="cls-1" transform="translate(928.71 1084.51)"><tspan class="cls-6">C</tspan><tspan class="cls-26" x="9.09" y="0">R</tspan><tspan class="cls-27" x="17.51" y="0">E</tspan><tspan class="cls-7" x="25.55" y="0">T</tspan><tspan x="33.33" y="0">E</tspan></text><text class="cls-1" transform="translate(1077.48 1564.6)"><tspan class="cls-28">NU</tspan><tspan class="cls-17" x="18.69" y="0">B</tspan><tspan class="cls-7" x="27.43" y="0">I</tspan><tspan x="30.98" y="0">A</tspan></text><text class="cls-29" transform="translate(690.85 1091.5)">M<tspan class="cls-30" x="15.78" y="0">e</tspan><tspan class="cls-31" x="27.37" y="0">d</tspan><tspan class="cls-32" x="39.33" y="0">i</tspan><tspan class="cls-33" x="46.81" y="0">t</tspan><tspan class="cls-34" x="55.51" y="0">e</tspan><tspan class="cls-35" x="67" y="0">r</tspan><tspan class="cls-36" x="75.96" y="0">r</tspan><tspan class="cls-37" x="84.96" y="0">a</tspan><tspan class="cls-38" x="96.17" y="0">ne</tspan><tspan class="cls-39" x="119.3" y="0">a</tspan><tspan class="cls-40" x="130.51" y="0">n </tspan><tspan class="cls-41" x="149.73" y="0">S</tspan><tspan class="cls-42" x="162.19" y="0">e</tspan><tspan class="cls-43" x="173.69" y="0">a</tspan></text><text class="cls-44" transform="matrix(1, 0.01, -0.01, 1, 1072.08, 1441.65)">N<tspan class="cls-45" x="13.52" y="0">i</tspan><tspan class="cls-46" x="20.96" y="0">l</tspan><tspan class="cls-47" x="28.44" y="0">e</tspan><tspan class="cls-48"><tspan x="-5.6" y="13.19">R</tspan><tspan class="cls-49" x="6.9" y="13.19">i</tspan><tspan class="cls-50" x="14.3" y="13.19">v</tspan><tspan class="cls-51" x="25.05" y="13.19">e</tspan><tspan class="cls-47" x="36.54" y="13.19">r</tspan></tspan></text><text class="cls-52" transform="translate(1233.68 1402.17)">R<tspan class="cls-30" x="12.42" y="0">e</tspan><tspan class="cls-43" x="24.01" y="0">d</tspan><tspan class="cls-41"><tspan x="0.4" y="13.19">S</tspan><tspan class="cls-42" x="12.86" y="13.19">e</tspan><tspan class="cls-43" x="24.36" y="13.19">a</tspan></tspan></text><text class="cls-53" transform="translate(904.66 934.27)">A<tspan class="cls-40" x="12.98" y="0">e</tspan><tspan class="cls-54" x="24.54" y="0">g</tspan><tspan class="cls-42" x="36.57" y="0">e</tspan><tspan class="cls-39" x="48.07" y="0">a</tspan><tspan class="cls-40" x="59.28" y="0">n</tspan><tspan class="cls-41"><tspan x="17.86" y="13.19">S</tspan><tspan class="cls-42" x="30.31" y="13.19">e</tspan><tspan class="cls-43" x="41.81" y="13.19">a</tspan></tspan></text><text class="cls-55" transform="translate(1378.85 1068)">T<tspan class="cls-56" x="11.96" y="0">i</tspan><tspan class="cls-57" x="19.4" y="0">g</tspan><tspan class="cls-32" x="31.44" y="0">r</tspan><tspan class="cls-58" x="40.4" y="0">i</tspan><tspan class="cls-40" x="47.83" y="0">s</tspan><tspan class="cls-59"><tspan x="3.6" y="13.19">R</tspan><tspan class="cls-60" x="16.1" y="13.19">i</tspan><tspan class="cls-61" x="23.5" y="13.19">v</tspan><tspan class="cls-34" x="34.25" y="13.19">e</tspan><tspan class="cls-40" x="45.73" y="13.19">r</tspan></tspan></text><text class="cls-62" transform="translate(1356.19 1148.15)">E<tspan class="cls-63" x="11.77" y="0">u</tspan><tspan class="cls-64" x="23.36" y="0">p</tspan><tspan class="cls-65" x="35.26" y="0">h</tspan><tspan class="cls-66" x="46.87" y="0">r</tspan><tspan class="cls-67" x="55.87" y="0">a</tspan><tspan class="cls-68" x="66.96" y="0">t</tspan><tspan class="cls-40" x="75.67" y="0">es</tspan><tspan class="cls-59"><tspan x="23.29" y="13.19">R</tspan><tspan class="cls-60" x="35.8" y="13.19">i</tspan><tspan class="cls-61" x="43.19" y="13.19">v</tspan><tspan class="cls-34" x="53.95" y="13.19">e</tspan><tspan class="cls-40" x="65.43" y="13.19">r</tspan></tspan></text><path class="cls-69" d="M1149.84,1075.57a2.78,2.78,0,1,0-2.78,2.79A2.78,2.78,0,0,0,1149.84,1075.57Z"/><path class="cls-69" d="M1166.08,1062.5a2.78,2.78,0,1,0-2.78,2.78A2.78,2.78,0,0,0,1166.08,1062.5Z"/><path class="cls-69" d="M1213.49,1050.38a2.78,2.78,0,1,0-2.78,2.79A2.78,2.78,0,0,0,1213.49,1050.38Z"/><g id="_1" data-name="1"><circle class="cls-69" cx="1183.77" cy="971.37" r="23.81"/><text class="cls-70" transform="translate(1176.78 982.79)">1</text></g><g id="_2" data-name="2"><circle class="cls-69" cx="1080.4" cy="1507.88" r="23.81"/><text class="cls-70" transform="translate(1070.67 1519.3)">2</text></g><g id="_3" data-name="3"><circle class="cls-69" cx="999.27" cy="1047.68" r="23.81"/><text class="cls-70" transform="translate(989.34 1059.1)">3</text></g><g id="_4" data-name="4"><circle class="cls-69" cx="1160.4" cy="1198.33" r="23.81"/><text class="cls-70" transform="translate(1150.62 1209.75)">4</text></g><g id="_5" data-name="5"><circle class="cls-69" cx="1224.01" cy="1198.33" r="23.81"/><text class="cls-70" transform="translate(1214.16 1209.75)">5</text></g><g id="_6" data-name="6"><circle class="cls-69" cx="1445.83" cy="966.75" r="23.81"/><text class="cls-70" transform="translate(1435.68 978.17)">6</text></g><line class="cls-71" x1="1219.21" y1="1179.3" x2="1163.3" y2="1062.5"/><line class="cls-71" x1="1147.71" y1="1076.21" x2="1159.72" y2="1178.37"/><line class="cls-71" x1="1424.83" y1="974.23" x2="1210.89" y2="1050.71"/><text class="cls-1" transform="translate(1372.1 1115.33)"><tspan class="cls-72">M</tspan><tspan class="cls-73" x="11.67" y="0">E</tspan><tspan class="cls-74" x="19.38" y="0">S</tspan><tspan class="cls-75" x="27.83" y="0">O</tspan><tspan class="cls-76" x="37.64" y="0">P</tspan><tspan class="cls-77" x="45.67" y="0">O</tspan><tspan class="cls-78" x="55.17" y="0">T</tspan><tspan class="cls-16" x="61.9" y="0">A</tspan><tspan class="cls-79" x="70.91" y="0">M</tspan><tspan class="cls-7" x="82.57" y="0">I</tspan><tspan x="86.13" y="0">A</tspan></text></svg>