<svg id="_1_-_BRONZE" data-name="1 - BRONZE" xmlns="http://www.w3.org/2000/svg" viewBox="0 0 4096 2190"><defs><style>.cls-1,.cls-14,.cls-30,.cls-34,.cls-57,.cls-58,.cls-60,.cls-7,.cls-70{font-size:13.18px;}.cls-1,.cls-14,.cls-30,.cls-7{fill:#939598;}.cls-1,.cls-14,.cls-30,.cls-7,.cls-75{font-family:NeutralStd-Regular, Neutral Std;}.cls-2{letter-spacing:0em;}.cls-3{letter-spacing:-0.01em;}.cls-4{letter-spacing:-0.02em;}.cls-14,.cls-5{letter-spacing:-0.03em;}.cls-30,.cls-6{letter-spacing:-0.01em;}.cls-16,.cls-7{letter-spacing:0em;}.cls-8{letter-spacing:0em;}.cls-9{letter-spacing:-0.09em;}.cls-10{letter-spacing:-0.03em;}.cls-11{letter-spacing:0em;}.cls-12{letter-spacing:0em;}.cls-13{letter-spacing:0em;}.cls-15{letter-spacing:-0.04em;}.cls-17{letter-spacing:0.01em;}.cls-18{letter-spacing:0.02em;}.cls-19{letter-spacing:0em;}.cls-20{letter-spacing:0em;}.cls-21{letter-spacing:-0.02em;}.cls-22{letter-spacing:-0.01em;}.cls-23{letter-spacing:-0.01em;}.cls-24{letter-spacing:-0.01em;}.cls-25{letter-spacing:0em;}.cls-26{letter-spacing:0.03em;}.cls-27{letter-spacing:0em;}.cls-28{letter-spacing:0.01em;}.cls-29{letter-spacing:-0.07em;}.cls-31{letter-spacing:0.01em;}.cls-32{letter-spacing:0em;}.cls-33{letter-spacing:0em;}.cls-34,.cls-48,.cls-57,.cls-58,.cls-60,.cls-70,.cls-74{fill:#231f20;}.cls-34,.cls-48,.cls-57,.cls-58,.cls-60,.cls-70{font-family:NeutralStd-RegularItalic, Neutral Std;font-style:italic;}.cls-34{letter-spacing:0.35em;}.cls-35{letter-spacing:0.35em;}.cls-36{letter-spacing:0.34em;}.cls-37{letter-spacing:0.34em;}.cls-38{letter-spacing:0.33em;}.cls-39{letter-spacing:0.34em;}.cls-40{letter-spacing:0.34em;}.cls-41{letter-spacing:0.34em;}.cls-42{letter-spacing:0.34em;}.cls-43{letter-spacing:0.34em;}.cls-44{letter-spacing:0.34em;}.cls-45{letter-spacing:0.35em;}.cls-46{letter-spacing:0.35em;}.cls-47{letter-spacing:0.35em;}.cls-48{font-size:13.18px;letter-spacing:0.35em;}.cls-49{letter-spacing:0.34em;}.cls-50{letter-spacing:0.34em;}.cls-51{letter-spacing:0.35em;}.cls-52{letter-spacing:0.35em;}.cls-53{letter-spacing:0.34em;}.cls-54{letter-spacing:0.33em;}.cls-55{letter-spacing:0.34em;}.cls-56{letter-spacing:0.35em;}.cls-57{letter-spacing:0.34em;}.cls-58{letter-spacing:0.33em;}.cls-59{letter-spacing:0.34em;}.cls-60{letter-spacing:0.35em;}.cls-61{letter-spacing:0.34em;}.cls-62{letter-spacing:0.34em;}.cls-63{letter-spacing:0.34em;}.cls-64{letter-spacing:0.35em;}.cls-65{letter-spacing:0.35em;}.cls-66{letter-spacing:0.34em;}.cls-67{letter-spacing:0.33em;}.cls-68{letter-spacing:0.34em;}.cls-69{letter-spacing:0.35em;}.cls-70{letter-spacing:0.31em;}.cls-71{letter-spacing:0.34em;}.cls-72{letter-spacing:0.34em;}.cls-73{letter-spacing:0.33em;}.cls-75{font-size:32.94px;fill:#fff;letter-spacing:-0.03em;}.cls-76{fill:none;stroke:#000;stroke-miterlimit:10;stroke-width:0.25px;}.cls-77{letter-spacing:0em;}.cls-78{letter-spacing:-0.02em;}.cls-79{letter-spacing:0em;}.cls-80{letter-spacing:0em;}.cls-81{letter-spacing:0.01em;}.cls-82{letter-spacing:-0.03em;}.cls-83{letter-spacing:0em;}</style></defs><title>bronze_locations</title><text class="cls-1" transform="translate(906.85 963.4)"><tspan class="cls-2">G</tspan><tspan class="cls-3" x="10.15" y="0">R</tspan><tspan class="cls-4" x="19.08" y="0">E</tspan><tspan class="cls-5" x="27.23" y="0">E</tspan><tspan class="cls-6" x="35.29" y="0">C</tspan><tspan x="44.94" y="0">E</tspan></text><text class="cls-7" transform="translate(1159.33 953.32)">A<tspan class="cls-8" x="9.56" y="0">N</tspan><tspan class="cls-9" x="19.53" y="0">A</tspan><tspan class="cls-10" x="27.97" y="0">T</tspan><tspan class="cls-11" x="35.83" y="0">O</tspan><tspan class="cls-12" x="46.25" y="0">L</tspan><tspan class="cls-8" x="53.98" y="0">I</tspan><tspan class="cls-13" x="57.74" y="0">A</tspan></text><text class="cls-14" transform="translate(1102.42 1319.75)">E<tspan class="cls-15" x="8.06" y="0">G</tspan><tspan class="cls-16" x="17.75" y="0">Y</tspan><tspan class="cls-17" x="26.45" y="0">P</tspan><tspan class="cls-13" x="35.01" y="0">T</tspan></text><text class="cls-1" transform="translate(1541.96 1446.36)"><tspan class="cls-16">A</tspan><tspan class="cls-18" x="9.56" y="0">R</tspan><tspan class="cls-16" x="18.92" y="0">A</tspan><tspan class="cls-13" x="28.48" y="0">B</tspan><tspan class="cls-8" x="37.74" y="0">I</tspan><tspan class="cls-19" x="41.51" y="0">A</tspan><tspan x="51.07" y="0">N</tspan><tspan class="cls-20" x="-7.71" y="14.82">P</tspan><tspan class="cls-21" x="0.64" y="14.82">E</tspan><tspan class="cls-22" x="8.79" y="14.82">NI</tspan><tspan class="cls-23" x="22.43" y="14.82">N</tspan><tspan class="cls-24" x="32.26" y="14.82">S</tspan><tspan class="cls-25" x="41.16" y="14.82">U</tspan><tspan class="cls-26" x="51.05" y="14.82">L</tspan><tspan x="59.2" y="14.82">A</tspan></text><text class="cls-1" transform="translate(1301.11 1145.49)"><tspan class="cls-27">L</tspan><tspan class="cls-28" x="7.73" y="0">E</tspan><tspan class="cls-29" x="16.26" y="0">V</tspan><tspan class="cls-16" x="24.76" y="0">A</tspan><tspan class="cls-8" x="34.32" y="0">N</tspan><tspan x="44.3" y="0">T</tspan></text><text class="cls-30" transform="translate(994.91 1099.04)">C<tspan class="cls-3" x="9.64" y="0">R</tspan><tspan class="cls-31" x="18.58" y="0">E</tspan><tspan class="cls-8" x="27.11" y="0">T</tspan><tspan class="cls-13" x="35.36" y="0">E</tspan></text><text class="cls-1" transform="translate(1152.81 1608.59)"><tspan class="cls-32">NU</tspan><tspan x="19.83" y="0">B</tspan><tspan class="cls-33" x="29.09" y="0">I</tspan><tspan x="32.86" y="0">A</tspan></text><text class="cls-34" transform="translate(742.44 1106.46)">M<tspan class="cls-35" x="16.75" y="0">e</tspan><tspan class="cls-36" x="29.05" y="0">d</tspan><tspan class="cls-37" x="41.74" y="0">i</tspan><tspan class="cls-38" x="49.68" y="0">t</tspan><tspan class="cls-39" x="58.92" y="0">e</tspan><tspan class="cls-40" x="71.1" y="0">r</tspan><tspan class="cls-41" x="80.62" y="0">r</tspan><tspan class="cls-42" x="90.17" y="0">a</tspan><tspan class="cls-43" x="102.06" y="0">ne</tspan><tspan class="cls-44" x="126.62" y="0">a</tspan><tspan class="cls-45" x="138.52" y="0">n </tspan><tspan class="cls-46" x="158.92" y="0">S</tspan><tspan class="cls-47" x="172.14" y="0">e</tspan><tspan class="cls-45" x="184.34" y="0">a</tspan></text><text class="cls-48" transform="translate(1147.06 1478.1) rotate(0.65)">N<tspan class="cls-49" x="14.35" y="0">i</tspan><tspan class="cls-50" x="22.25" y="0">l</tspan><tspan class="cls-51" x="30.18" y="0">e</tspan><tspan class="cls-52"><tspan x="-5.94" y="14">R</tspan><tspan class="cls-53" x="7.33" y="14">i</tspan><tspan class="cls-54" x="15.18" y="14">v</tspan><tspan class="cls-55" x="26.59" y="14">e</tspan><tspan class="cls-56" x="38.78" y="14">r</tspan></tspan></text><text class="cls-57" transform="translate(1318.58 1436.19)">R<tspan class="cls-35" x="13.18" y="0">e</tspan><tspan class="cls-45" x="25.49" y="0">d</tspan><tspan class="cls-46"><tspan x="0.43" y="14">S</tspan><tspan class="cls-47" x="13.65" y="14">e</tspan><tspan class="cls-45" x="25.85" y="14">a</tspan></tspan></text><text class="cls-58" transform="translate(969.37 939.58)">A<tspan class="cls-45" x="13.77" y="0">e</tspan><tspan class="cls-59" x="26.04" y="0">g</tspan><tspan class="cls-47" x="38.82" y="0">e</tspan><tspan class="cls-42" x="51.02" y="0">a</tspan><tspan class="cls-45" x="62.92" y="0">n</tspan><tspan class="cls-46"><tspan x="18.95" y="14">S</tspan><tspan class="cls-47" x="32.17" y="14">e</tspan><tspan class="cls-45" x="44.37" y="14">a</tspan></tspan></text><text class="cls-60" transform="translate(1472.65 1081.52)">T<tspan class="cls-61" x="12.69" y="0">i</tspan><tspan class="cls-62" x="20.59" y="0">g</tspan><tspan class="cls-40" x="33.36" y="0">r</tspan><tspan class="cls-63" x="42.88" y="0">i</tspan><tspan class="cls-64" x="50.76" y="0">s</tspan><tspan class="cls-65"><tspan x="3.82" y="14">R</tspan><tspan class="cls-66" x="17.09" y="14">i</tspan><tspan class="cls-67" x="24.94" y="14">v</tspan><tspan class="cls-68" x="36.35" y="14">e</tspan><tspan class="cls-69" x="48.54" y="14">r</tspan></tspan></text><text class="cls-70" transform="translate(1448.61 1166.59)">E<tspan class="cls-71" x="12.49" y="0">u</tspan><tspan class="cls-43" x="24.79" y="0">p</tspan><tspan class="cls-72" x="37.42" y="0">h</tspan><tspan class="cls-41" x="49.75" y="0">r</tspan><tspan class="cls-73" x="59.29" y="0">a</tspan><tspan class="cls-38" x="71.06" y="0">t</tspan><tspan class="cls-45" x="80.3" y="0">es</tspan><tspan class="cls-65"><tspan x="24.72" y="14">R</tspan><tspan class="cls-66" x="37.99" y="14">i</tspan><tspan class="cls-67" x="45.84" y="14">v</tspan><tspan class="cls-68" x="57.25" y="14">e</tspan><tspan class="cls-69" x="69.44" y="14">r</tspan></tspan></text><path class="cls-74" d="M1229.6,1089.56a3,3,0,1,0-2.95,3A2.95,2.95,0,0,0,1229.6,1089.56Z"/><path class="cls-74" d="M1246.83,1075.68a3,3,0,1,0-2.95,3A3,3,0,0,0,1246.83,1075.68Z"/><path class="cls-74" d="M1297.15,1062.82a3,3,0,1,0-3,3A2.95,2.95,0,0,0,1297.15,1062.82Z"/><g id="_1" data-name="1"><circle class="cls-74" cx="1265.6" cy="978.96" r="25.27"/><text class="cls-75" transform="translate(1258.19 991.08)">1</text></g><g id="_2" data-name="2"><circle class="cls-74" cx="1155.89" cy="1548.39" r="25.27"/><text class="cls-75" transform="translate(1145.56 1560.51)">2</text></g><g id="_3" data-name="3"><circle class="cls-74" cx="1069.78" cy="1059.96" r="25.27"/><text class="cls-75" transform="translate(1059.24 1072.08)">3</text></g><g id="_4-real_location" data-name="4-real_location"><circle class="cls-74" cx="1226.8" cy="1087.84" r="25.27"/></g><g id="_4" data-name="4"><circle class="cls-74" cx="1240.8" cy="1219.84" r="25.27"/><text class="cls-75" transform="translate(1230.42 1231.97)">4</text></g><g id="_5-real_location" data-name="5-real_location"><circle class="cls-74" cx="1245.32" cy="1074.84" r="25.27"/></g><g id="_5" data-name="5"><circle class="cls-74" cx="1308.32" cy="1219.84" r="25.27"/><text class="cls-75" transform="translate(1297.86 1231.97)">5</text></g><g id="_6-real_location" data-name="6-real_location"><circle class="cls-74" cx="1293.75" cy="1064.05" r="25.27"/></g><g id="_6" data-name="6"><circle class="cls-74" cx="1543.75" cy="974.05" r="25.27"/><text class="cls-75" transform="translate(1532.98 986.18)">6</text></g><line class="cls-76" x1="1303.22" y1="1199.65" x2="1243.88" y2="1075.68"/><line class="cls-76" x1="1227.33" y1="1090.23" x2="1240.08" y2="1198.67"/><line class="cls-76" x1="1521.46" y1="981.99" x2="1294.39" y2="1063.17"/><text class="cls-1" transform="translate(1465.51 1124.32)"><tspan class="cls-77">M</tspan><tspan class="cls-78" x="12.38" y="0">E</tspan><tspan class="cls-79" x="20.56" y="0">S</tspan><tspan class="cls-80" x="29.52" y="0">O</tspan><tspan class="cls-81" x="39.94" y="0">P</tspan><tspan class="cls-82" x="48.45" y="0">O</tspan><tspan class="cls-9" x="58.54" y="0">T</tspan><tspan class="cls-16" x="65.67" y="0">A</tspan><tspan class="cls-83" x="75.23" y="0">M</tspan><tspan class="cls-8" x="87.61" y="0">I</tspan><tspan x="91.37" y="0">A</tspan></text></svg>