<svg id="_3_-_GREECE" data-name="3 - GREECE" xmlns="http://www.w3.org/2000/svg" viewBox="0 0 3840 2160"><defs><style>.cls-1,.cls-13,.cls-18,.cls-34,.cls-43,.cls-46,.cls-57,.cls-7{font-size:12.42px;}.cls-1,.cls-13,.cls-7{fill:#939598;}.cls-1,.cls-13,.cls-66,.cls-67,.cls-7{font-family:NeutralStd-Regular, Neutral Std;}.cls-13,.cls-2{letter-spacing:0em;}.cls-3{letter-spacing:-0.09em;}.cls-4{letter-spacing:-0.03em;}.cls-5{letter-spacing:0em;}.cls-6{letter-spacing:0em;}.cls-7{letter-spacing:0.01em;}.cls-8{letter-spacing:-0.02em;}.cls-9{letter-spacing:0em;}.cls-10{letter-spacing:-0.01em;}.cls-11{letter-spacing:0em;}.cls-12{letter-spacing:0em;}.cls-14{letter-spacing:0em;}.cls-15{letter-spacing:0.02em;}.cls-16{letter-spacing:-0.03em;}.cls-17{letter-spacing:-0.01em;}.cls-18,.cls-34,.cls-43,.cls-46,.cls-57,.cls-64{fill:#231f20;}.cls-18,.cls-34,.cls-43,.cls-46,.cls-57{font-family:NeutralStd-RegularItalic, Neutral Std;font-style:italic;}.cls-18,.cls-52{letter-spacing:0.35em;}.cls-19{letter-spacing:0.35em;}.cls-20{letter-spacing:0.34em;}.cls-21{letter-spacing:0.34em;}.cls-22{letter-spacing:0.33em;}.cls-23{letter-spacing:0.34em;}.cls-24{letter-spacing:0.34em;}.cls-25{letter-spacing:0.34em;}.cls-26{letter-spacing:0.34em;}.cls-27{letter-spacing:0.34em;}.cls-28{letter-spacing:0.34em;}.cls-29{letter-spacing:0.35em;}.cls-30{letter-spacing:0.35em;}.cls-31{letter-spacing:0.35em;}.cls-32{letter-spacing:0.35em;}.cls-33{letter-spacing:0em;}.cls-34{letter-spacing:0.35em;}.cls-35{letter-spacing:0.34em;}.cls-36{letter-spacing:0.34em;}.cls-37{letter-spacing:0.34em;}.cls-38{letter-spacing:0.35em;}.cls-39{letter-spacing:0.34em;}.cls-40{letter-spacing:0.33em;}.cls-41{letter-spacing:0.34em;}.cls-42{letter-spacing:0.35em;}.cls-43{letter-spacing:0.35em;}.cls-44{letter-spacing:0.34em;}.cls-45{letter-spacing:0.34em;}.cls-46{letter-spacing:0.36em;}.cls-47{letter-spacing:0.34em;}.cls-48{letter-spacing:0.34em;}.cls-49{letter-spacing:0.35em;}.cls-50{letter-spacing:0.34em;}.cls-51{letter-spacing:0.34em;}.cls-53{letter-spacing:0.33em;}.cls-54{letter-spacing:0.33em;}.cls-55{letter-spacing:0.34em;}.cls-56{letter-spacing:0.34em;}.cls-57{letter-spacing:0.35em;}.cls-58{letter-spacing:0.34em;}.cls-59{letter-spacing:0.34em;}.cls-60{letter-spacing:0.35em;}.cls-61{letter-spacing:0.34em;}.cls-62{letter-spacing:0.34em;}.cls-63{letter-spacing:0.34em;}.cls-65{fill:none;stroke:#000;stroke-miterlimit:10;stroke-width:0.5px;}.cls-66,.cls-67{font-size:31.04px;fill:#fff;}.cls-66{letter-spacing:-0.02em;}.cls-67{letter-spacing:-0.08em;}.cls-68{letter-spacing:-0.02em;}.cls-69{letter-spacing:-0.04em;}.cls-70{letter-spacing:0em;}.cls-71{letter-spacing:0.01em;}.cls-72{letter-spacing:0em;}.cls-73{letter-spacing:-0.01em;}.cls-74{letter-spacing:-0.02em;}</style></defs><title>greek-real</title><text class="cls-1" transform="translate(1083.62 947.22)">A<tspan class="cls-2" x="9.01" y="0">N</tspan><tspan class="cls-3" x="18.41" y="0">A</tspan><tspan class="cls-4" x="26.37" y="0">T</tspan><tspan class="cls-5" x="33.78" y="0">O</tspan><tspan class="cls-6" x="43.6" y="0">L</tspan><tspan class="cls-2" x="50.88" y="0">I</tspan><tspan x="54.43" y="0">A</tspan></text><text class="cls-7" transform="translate(589.91 796.63)">E<tspan class="cls-2" x="8.04" y="0">T</tspan><tspan class="cls-8" x="15.82" y="0">R</tspan><tspan class="cls-9" x="24.14" y="0">U</tspan><tspan class="cls-10" x="33.46" y="0">R</tspan><tspan class="cls-11" x="41.88" y="0">I</tspan><tspan class="cls-12" x="45.43" y="0">A</tspan></text><text class="cls-1" transform="translate(973.25 883.22)">AP<tspan class="cls-9" x="16.92" y="0">UL</tspan><tspan class="cls-11" x="33.53" y="0">I</tspan><tspan class="cls-12" x="37.08" y="0">A</tspan></text><text class="cls-13" transform="translate(876.47 831.22)">T<tspan class="cls-14" x="7.77" y="0">H</tspan><tspan class="cls-15" x="17.19" y="0">R</tspan><tspan class="cls-16" x="26.01" y="0">A</tspan><tspan class="cls-17" x="34.66" y="0">C</tspan><tspan class="cls-12" x="43.75" y="0">E</tspan></text><text class="cls-18" transform="translate(690.85 1091.49)">M<tspan class="cls-19" x="15.78" y="0">e</tspan><tspan class="cls-20" x="27.37" y="0">d</tspan><tspan class="cls-21" x="39.33" y="0">i</tspan><tspan class="cls-22" x="46.81" y="0">t</tspan><tspan class="cls-23" x="55.51" y="0">e</tspan><tspan class="cls-24" x="67" y="0">r</tspan><tspan class="cls-25" x="75.96" y="0">r</tspan><tspan class="cls-26" x="84.96" y="0">a</tspan><tspan class="cls-27" x="96.17" y="0">ne</tspan><tspan class="cls-28" x="119.3" y="0">a</tspan><tspan class="cls-29" x="130.51" y="0">n </tspan><tspan class="cls-30" x="149.73" y="0">S</tspan><tspan class="cls-31" x="162.19" y="0">e</tspan><tspan class="cls-32" x="173.69" y="0">a</tspan></text><text class="cls-1" transform="translate(1590.87 1110.15)"><tspan class="cls-33">I</tspan><tspan class="cls-15" x="3.5" y="0">R</tspan><tspan x="12.33" y="0">AN</tspan></text><text class="cls-34" transform="translate(2042.93 1218.15)">I<tspan class="cls-35" x="7.79" y="0">n</tspan><tspan class="cls-36" x="19.43" y="0">d</tspan><tspan class="cls-37" x="31.32" y="0">u</tspan><tspan class="cls-32" x="42.9" y="0">s </tspan><tspan class="cls-38"><tspan x="4.89" y="13.19">R</tspan><tspan class="cls-39" x="17.39" y="13.19">i</tspan><tspan class="cls-40" x="24.79" y="13.19">v</tspan><tspan class="cls-41" x="35.54" y="13.19">e</tspan><tspan class="cls-42" x="47.02" y="13.19">r</tspan></tspan></text><text class="cls-43" transform="translate(1118.27 809.94)">B<tspan class="cls-39" x="12.86" y="0">l</tspan><tspan class="cls-44" x="20.26" y="0">a</tspan><tspan class="cls-45" x="31.5" y="0">c</tspan><tspan class="cls-29" x="42.55" y="0">k </tspan><tspan class="cls-30" x="61.12" y="0">S</tspan><tspan class="cls-31" x="73.58" y="0">e</tspan><tspan class="cls-29" x="85.08" y="0">a</tspan></text><text class="cls-46" transform="translate(1386.79 826.43)">C<tspan class="cls-47" x="13.36" y="0">a</tspan><tspan class="cls-48" x="24.52" y="0">u</tspan><tspan class="cls-49" x="36.12" y="0">c</tspan><tspan class="cls-50" x="47.3" y="0">a</tspan><tspan class="cls-51" x="58.51" y="0">su</tspan><tspan class="cls-29" x="80.51" y="0">s</tspan><tspan class="cls-52"><tspan x="-4.54" y="13.19">M</tspan><tspan class="cls-26" x="11.24" y="13.19">ou</tspan><tspan class="cls-53" x="34.51" y="13.19">n</tspan><tspan class="cls-54" x="46.02" y="13.19">t</tspan><tspan class="cls-26" x="54.79" y="13.19">a</tspan><tspan class="cls-55" x="65.99" y="13.19">i</tspan><tspan class="cls-56" x="73.43" y="13.19">n</tspan><tspan class="cls-32" x="85.05" y="13.19">s</tspan></tspan></text><text class="cls-57" transform="translate(801.48 770.56)">D<tspan class="cls-28" x="13.34" y="0">a</tspan><tspan class="cls-58" x="24.55" y="0">n</tspan><tspan class="cls-59" x="36.11" y="0">u</tspan><tspan class="cls-29" x="47.71" y="0">be</tspan><tspan class="cls-60"><tspan x="10.02" y="13.19">R</tspan><tspan class="cls-61" x="22.53" y="13.19">i</tspan><tspan class="cls-40" x="29.92" y="13.19">v</tspan><tspan class="cls-23" x="40.68" y="13.19">e</tspan><tspan class="cls-29" x="52.16" y="13.19">r</tspan></tspan></text><text class="cls-46" transform="translate(1531.15 836.54)">C<tspan class="cls-50" x="13.36" y="0">a</tspan><tspan class="cls-62" x="24.57" y="0">s</tspan><tspan class="cls-35" x="35.05" y="0">p</tspan><tspan class="cls-63" x="46.95" y="0">i</tspan><tspan class="cls-28" x="54.37" y="0">a</tspan><tspan class="cls-29" x="65.58" y="0">n</tspan><tspan class="cls-30"><tspan x="21" y="13.19">S</tspan><tspan class="cls-31" x="33.46" y="13.19">e</tspan><tspan class="cls-32" x="44.96" y="13.19">a</tspan></tspan></text><path class="cls-64" d="M919.78,980.74a2.78,2.78,0,1,0-2.78,2.78A2.77,2.77,0,0,0,919.78,980.74Z"/><path class="cls-64" d="M684.16,884.57a2.78,2.78,0,1,0-2.77,2.78A2.77,2.77,0,0,0,684.16,884.57Z"/><line class="cls-65" x1="917" y1="980.74" x2="504.71" y2="1068.71"/><g id="_3" data-name="3"><circle class="cls-64" cx="680.33" cy="884.16" r="23.81"/><text class="cls-66" transform="translate(670.39 895.58)">3</text></g><g id="_4" data-name="4"><circle class="cls-64" cx="1267.18" cy="1013.49" r="23.81"/><text class="cls-66" transform="translate(1257.4 1024.91)">4</text></g><g id="_5" data-name="5"><circle class="cls-64" cx="1103.96" cy="1211.91" r="23.81"/><text class="cls-66" transform="translate(1094.1 1223.33)">5</text></g><g id="_6" data-name="6"><circle class="cls-64" cx="1283.45" cy="923.38" r="23.81"/><text class="cls-66" transform="translate(1273.3 934.8)">6</text></g><g id="_9" data-name="9"><circle class="cls-64" cx="746.19" cy="879.36" r="23.81"/><text class="cls-66" transform="translate(736.09 890.78)">9</text></g><g id="_1_2_7-real_location" data-name="1_2_7-real_location"><circle class="cls-64" cx="917.97" cy="980.98" r="23.81"/><text class="cls-66" transform="translate(910.99 992.4)">1</text></g><g id="_1" data-name="1"><circle class="cls-64" cx="487.97" cy="1072.98" r="23.81"/><text class="cls-66" transform="translate(480.99 1084.4)">1</text></g><g id="_2" data-name="2"><circle class="cls-64" cx="487.97" cy="1127.57" r="23.81"/><text class="cls-66" transform="translate(478.24 1138.99)">2</text></g><g id="_7" data-name="7"><circle class="cls-64" cx="487.97" cy="1182.16" r="23.81"/><text class="cls-66" transform="translate(479.34 1193.58)">7</text></g><g id="_8" data-name="8"><circle class="cls-64" cx="996.15" cy="843.89" r="23.81"/><text class="cls-67" transform="translate(986.22 855.31)">8</text></g><text class="cls-1" transform="translate(1030.01 1292.46)"><tspan class="cls-68">E</tspan><tspan class="cls-69" x="7.6" y="0">G</tspan><tspan class="cls-70" x="16.73" y="0">Y</tspan><tspan class="cls-71" x="24.94" y="0">P</tspan><tspan x="33" y="0">T</tspan></text><text class="cls-1" transform="translate(878.37 1008.87)"><tspan class="cls-72">G</tspan><tspan class="cls-73" x="9.56" y="0">R</tspan><tspan class="cls-74" x="17.98" y="0">E</tspan><tspan class="cls-68" x="25.66" y="0">E</tspan><tspan class="cls-17" x="33.26" y="0">C</tspan><tspan x="42.35" y="0">E</tspan></text></svg>