<svg id="_2_-_IRON" data-name="2 - IRON" xmlns="http://www.w3.org/2000/svg" viewBox="0 0 3840 2160"><defs><style>.cls-1,.cls-22,.cls-27,.cls-68,.cls-7,.cls-74,.cls-82,.cls-91,.cls-97{font-size:12.42px;}.cls-1,.cls-91{fill:#939598;}.cls-1,.cls-101,.cls-91{font-family:NeutralStd-Regular, Neutral Std;}.cls-2{letter-spacing:0em;}.cls-3{letter-spacing:-0.09em;}.cls-4{letter-spacing:-0.03em;}.cls-5{letter-spacing:0em;}.cls-6{letter-spacing:0em;}.cls-22,.cls-27,.cls-48,.cls-68,.cls-7,.cls-74,.cls-82,.cls-96,.cls-97{fill:#231f20;}.cls-22,.cls-27,.cls-48,.cls-68,.cls-7,.cls-74,.cls-82,.cls-97{font-family:NeutralStd-RegularItalic, Neutral Std;font-style:italic;}.cls-7{letter-spacing:0.31em;}.cls-8{letter-spacing:0.34em;}.cls-9{letter-spacing:0.34em;}.cls-10{letter-spacing:0.34em;}.cls-11,.cls-97{letter-spacing:0.34em;}.cls-12{letter-spacing:0.33em;}.cls-13{letter-spacing:0.33em;}.cls-14{letter-spacing:0.35em;}.cls-15{letter-spacing:0.35em;}.cls-16{letter-spacing:0.34em;}.cls-17{letter-spacing:0.33em;}.cls-18{letter-spacing:0.34em;}.cls-19{letter-spacing:0em;}.cls-20{letter-spacing:0.01em;}.cls-21{letter-spacing:-0.07em;}.cls-22{letter-spacing:0.35em;}.cls-23{letter-spacing:0.34em;}.cls-24{letter-spacing:0.34em;}.cls-25{letter-spacing:0.34em;}.cls-26{letter-spacing:0.34em;}.cls-27{letter-spacing:0.34em;}.cls-28{letter-spacing:0.34em;}.cls-29{letter-spacing:0.35em;}.cls-30{letter-spacing:0.35em;}.cls-31,.cls-74{letter-spacing:0.35em;}.cls-32{letter-spacing:0.34em;}.cls-33{letter-spacing:0.33em;}.cls-34{letter-spacing:0.33em;}.cls-35{letter-spacing:0.34em;}.cls-36{letter-spacing:0.02em;}.cls-37{letter-spacing:-0.01em;}.cls-38{letter-spacing:0em;}.cls-39{letter-spacing:0.02em;}.cls-40{letter-spacing:0em;}.cls-41{letter-spacing:0em;}.cls-42{letter-spacing:0em;}.cls-43{letter-spacing:-0.02em;}.cls-44{letter-spacing:0em;}.cls-45{letter-spacing:-0.01em;}.cls-46{letter-spacing:-0.01em;}.cls-47{letter-spacing:0.03em;}.cls-48{font-size:12.42px;letter-spacing:0.35em;}.cls-49{letter-spacing:0.34em;}.cls-50{letter-spacing:0.34em;}.cls-51{letter-spacing:0.35em;}.cls-52{letter-spacing:0.35em;}.cls-53{letter-spacing:0.34em;}.cls-54{letter-spacing:0.33em;}.cls-55{letter-spacing:0.34em;}.cls-56{letter-spacing:0em;}.cls-57{letter-spacing:-0.01em;}.cls-58{letter-spacing:-0.02em;}.cls-59{letter-spacing:-0.01em;}.cls-60{letter-spacing:0em;}.cls-61{letter-spacing:-0.02em;}.cls-62{letter-spacing:0em;}.cls-63{letter-spacing:0em;}.cls-64{letter-spacing:0.01em;}.cls-65{letter-spacing:-0.03em;}.cls-66{letter-spacing:-0.09em;}.cls-67{letter-spacing:0em;}.cls-68{letter-spacing:0.35em;}.cls-69{letter-spacing:0.34em;}.cls-70{letter-spacing:0.34em;}.cls-71{letter-spacing:0.34em;}.cls-72{letter-spacing:0.35em;}.cls-73{letter-spacing:0.35em;}.cls-75{letter-spacing:0.35em;}.cls-76{letter-spacing:0.34em;}.cls-77{letter-spacing:0.33em;}.cls-78{letter-spacing:0.34em;}.cls-79{letter-spacing:0.34em;}.cls-80{letter-spacing:0.34em;}.cls-81{letter-spacing:0.34em;}.cls-82{letter-spacing:0.36em;}.cls-83{letter-spacing:0.34em;}.cls-84{letter-spacing:0.34em;}.cls-85{letter-spacing:0.34em;}.cls-86{letter-spacing:0.34em;}.cls-87{letter-spacing:0.34em;}.cls-88{letter-spacing:0.34em;}.cls-89{letter-spacing:0.35em;}.cls-90{letter-spacing:0.34em;}.cls-91{letter-spacing:0.01em;}.cls-92{letter-spacing:0em;}.cls-93{letter-spacing:-0.04em;}.cls-94{letter-spacing:0em;}.cls-95{letter-spacing:0.01em;}.cls-98{letter-spacing:0.35em;}.cls-99{letter-spacing:0.35em;}.cls-100{letter-spacing:0.35em;}.cls-101{font-size:31.04px;fill:#fff;letter-spacing:-0.02em;}.cls-102{fill:none;stroke:#000;stroke-miterlimit:10;stroke-width:0.25px;}</style></defs><title>iron-real</title><text class="cls-1" transform="translate(1084.69 948.28)">A<tspan class="cls-2" x="9.01" y="0">N</tspan><tspan class="cls-3" x="18.41" y="0">A</tspan><tspan class="cls-4" x="26.37" y="0">T</tspan><tspan class="cls-5" x="33.78" y="0">O</tspan><tspan class="cls-6" x="43.6" y="0">L</tspan><tspan class="cls-2" x="50.88" y="0">I</tspan><tspan x="54.43" y="0">A</tspan></text><text class="cls-7" transform="translate(1355.94 1148.15)">E<tspan class="cls-8" x="11.77" y="0">u</tspan><tspan class="cls-9" x="23.36" y="0">p</tspan><tspan class="cls-10" x="35.26" y="0">h</tspan><tspan class="cls-11" x="46.87" y="0">r</tspan><tspan class="cls-12" x="55.87" y="0">a</tspan><tspan class="cls-13" x="66.96" y="0">t</tspan><tspan class="cls-14" x="75.67" y="0">es</tspan><tspan class="cls-15"><tspan x="23.29" y="13.19">R</tspan><tspan class="cls-16" x="35.8" y="13.19">i</tspan><tspan class="cls-17" x="43.19" y="13.19">v</tspan><tspan class="cls-18" x="53.95" y="13.19">e</tspan><tspan class="cls-14" x="65.43" y="13.19">r</tspan></tspan></text><text class="cls-1" transform="translate(1217.21 1128.27)"><tspan class="cls-19">L</tspan><tspan class="cls-20" x="7.28" y="0">E</tspan><tspan class="cls-21" x="15.33" y="0">V</tspan><tspan x="23.34" y="0">A</tspan><tspan class="cls-2" x="32.36" y="0">N</tspan><tspan x="41.76" y="0">T</tspan></text><text class="cls-22" transform="translate(1378.85 1068)">T<tspan class="cls-23" x="11.96" y="0">i</tspan><tspan class="cls-24" x="19.4" y="0">g</tspan><tspan class="cls-25" x="31.44" y="0">r</tspan><tspan class="cls-26" x="40.4" y="0">i</tspan><tspan class="cls-14" x="47.83" y="0">s</tspan><tspan class="cls-15"><tspan x="3.6" y="13.19">R</tspan><tspan class="cls-16" x="16.1" y="13.19">i</tspan><tspan class="cls-17" x="23.5" y="13.19">v</tspan><tspan class="cls-18" x="34.25" y="13.19">e</tspan><tspan class="cls-14" x="45.73" y="13.19">r</tspan></tspan></text><text class="cls-27" transform="translate(1490.88 1066.06)">Z<tspan class="cls-28" x="11.99" y="0">ag</tspan><tspan class="cls-11" x="35.23" y="0">r</tspan><tspan class="cls-29" x="44.23" y="0">o</tspan><tspan class="cls-30" x="55.98" y="0">s</tspan><tspan class="cls-31"><tspan x="-16.81" y="13.19">M</tspan><tspan class="cls-32" x="-1.03" y="13.19">ou</tspan><tspan class="cls-33" x="22.25" y="13.19">n</tspan><tspan class="cls-34" x="33.76" y="13.19">t</tspan><tspan class="cls-32" x="42.52" y="13.19">a</tspan><tspan class="cls-8" x="53.73" y="13.19">i</tspan><tspan class="cls-35" x="61.17" y="13.19">n</tspan><tspan class="cls-30" x="72.78" y="13.19">s</tspan></tspan></text><text class="cls-1" transform="translate(1379.5 953.92)"><tspan class="cls-19">U</tspan><tspan class="cls-36" x="9.32" y="0">R</tspan><tspan x="18.14" y="0">A</tspan><tspan class="cls-37" x="27.16" y="0">R</tspan><tspan class="cls-38" x="35.58" y="0">T</tspan><tspan x="43.38" y="0">U</tspan></text><text class="cls-1" transform="translate(1444.13 1411.74)">A<tspan class="cls-39" x="9.01" y="0">R</tspan><tspan class="cls-40" x="17.84" y="0">A</tspan><tspan class="cls-41" x="26.85" y="0">B</tspan><tspan class="cls-2" x="35.58" y="0">I</tspan><tspan x="39.14" y="0">AN</tspan><tspan class="cls-42" x="-7.26" y="13.97">P</tspan><tspan class="cls-43" x="0.61" y="13.97">E</tspan><tspan class="cls-44" x="8.29" y="13.97">NI</tspan><tspan class="cls-45" x="21.15" y="13.97">N</tspan><tspan class="cls-46" x="30.42" y="13.97">S</tspan><tspan class="cls-19" x="38.8" y="13.97">U</tspan><tspan class="cls-47" x="48.12" y="13.97">L</tspan><tspan x="55.81" y="13.97">A</tspan></text><text class="cls-1" transform="translate(1670.87 1148.15)"><tspan class="cls-44">I</tspan><tspan class="cls-39" x="3.5" y="0">R</tspan><tspan x="12.33" y="0">AN</tspan></text><text class="cls-48" transform="matrix(1, 0.01, -0.01, 1, 1072.08, 1441.65)">N<tspan class="cls-49" x="13.52" y="0">i</tspan><tspan class="cls-50" x="20.96" y="0">l</tspan><tspan class="cls-51" x="28.44" y="0">e</tspan><tspan class="cls-52"><tspan x="-5.6" y="13.19">R</tspan><tspan class="cls-53" x="6.9" y="13.19">i</tspan><tspan class="cls-54" x="14.3" y="13.19">v</tspan><tspan class="cls-55" x="25.05" y="13.19">e</tspan><tspan class="cls-51" x="36.54" y="13.19">r</tspan></tspan></text><text class="cls-1" transform="translate(878.37 1008.87)"><tspan class="cls-56">G</tspan><tspan class="cls-57" x="9.56" y="0">R</tspan><tspan class="cls-43" x="17.98" y="0">E</tspan><tspan class="cls-58" x="25.66" y="0">E</tspan><tspan class="cls-59" x="33.26" y="0">C</tspan><tspan x="42.35" y="0">E</tspan></text><text class="cls-1" transform="translate(1315.73 1104.59)"><tspan class="cls-60">M</tspan><tspan class="cls-61" x="11.67" y="0">E</tspan><tspan class="cls-62" x="19.38" y="0">S</tspan><tspan class="cls-63" x="27.83" y="0">O</tspan><tspan class="cls-64" x="37.64" y="0">P</tspan><tspan class="cls-65" x="45.67" y="0">O</tspan><tspan class="cls-66" x="55.17" y="0">T</tspan><tspan class="cls-40" x="61.9" y="0">A</tspan><tspan class="cls-67" x="70.91" y="0">M</tspan><tspan class="cls-2" x="82.57" y="0">I</tspan><tspan x="86.13" y="0">A</tspan></text><text class="cls-68" transform="translate(1118.27 809.93)">B<tspan class="cls-69" x="12.86" y="0">l</tspan><tspan class="cls-70" x="20.26" y="0">a</tspan><tspan class="cls-71" x="31.5" y="0">c</tspan><tspan class="cls-14" x="42.55" y="0">k </tspan><tspan class="cls-72" x="61.12" y="0">S</tspan><tspan class="cls-73" x="73.58" y="0">e</tspan><tspan class="cls-14" x="85.08" y="0">a</tspan></text><text class="cls-74" transform="translate(690.85 1091.5)">M<tspan class="cls-75" x="15.78" y="0">e</tspan><tspan class="cls-76" x="27.37" y="0">d</tspan><tspan class="cls-25" x="39.33" y="0">i</tspan><tspan class="cls-77" x="46.81" y="0">t</tspan><tspan class="cls-18" x="55.51" y="0">e</tspan><tspan class="cls-78" x="67" y="0">r</tspan><tspan class="cls-79" x="75.96" y="0">r</tspan><tspan class="cls-32" x="84.96" y="0">a</tspan><tspan class="cls-80" x="96.17" y="0">ne</tspan><tspan class="cls-81" x="119.3" y="0">a</tspan><tspan class="cls-14" x="130.51" y="0">n </tspan><tspan class="cls-72" x="149.73" y="0">S</tspan><tspan class="cls-73" x="162.19" y="0">e</tspan><tspan class="cls-30" x="173.69" y="0">a</tspan></text><text class="cls-82" transform="translate(1531.15 836.54)">C<tspan class="cls-83" x="13.36" y="0">a</tspan><tspan class="cls-84" x="24.57" y="0">s</tspan><tspan class="cls-85" x="35.05" y="0">p</tspan><tspan class="cls-86" x="46.95" y="0">i</tspan><tspan class="cls-81" x="54.37" y="0">a</tspan><tspan class="cls-14" x="65.58" y="0">n</tspan><tspan class="cls-72"><tspan x="21" y="13.19">S</tspan><tspan class="cls-73" x="33.46" y="13.19">e</tspan><tspan class="cls-30" x="44.96" y="13.19">a</tspan></tspan></text><text class="cls-82" transform="translate(1386.79 826.43)">C<tspan class="cls-87" x="13.36" y="0">a</tspan><tspan class="cls-88" x="24.52" y="0">u</tspan><tspan class="cls-89" x="36.12" y="0">c</tspan><tspan class="cls-83" x="47.3" y="0">a</tspan><tspan class="cls-90" x="58.51" y="0">su</tspan><tspan class="cls-14" x="80.51" y="0">s</tspan><tspan class="cls-31"><tspan x="-4.54" y="13.19">M</tspan><tspan class="cls-32" x="11.24" y="13.19">ou</tspan><tspan class="cls-33" x="34.51" y="13.19">n</tspan><tspan class="cls-34" x="46.02" y="13.19">t</tspan><tspan class="cls-32" x="54.79" y="13.19">a</tspan><tspan class="cls-8" x="65.99" y="13.19">i</tspan><tspan class="cls-35" x="73.43" y="13.19">n</tspan><tspan class="cls-30" x="85.05" y="13.19">s</tspan></tspan></text><text class="cls-91" transform="translate(589.91 796.63)">E<tspan class="cls-2" x="8.04" y="0">T</tspan><tspan class="cls-61" x="15.82" y="0">R</tspan><tspan class="cls-19" x="24.14" y="0">U</tspan><tspan class="cls-37" x="33.46" y="0">R</tspan><tspan class="cls-92" x="41.88" y="0">I</tspan><tspan class="cls-40" x="45.43" y="0">A</tspan></text><text class="cls-1" transform="translate(1030.01 1292.46)"><tspan class="cls-58">E</tspan><tspan class="cls-93" x="7.6" y="0">G</tspan><tspan class="cls-94" x="16.73" y="0">Y</tspan><tspan class="cls-95" x="24.94" y="0">P</tspan><tspan x="33" y="0">T</tspan></text><path class="cls-96" d="M626.8,821.46a2.79,2.79,0,1,0-2.78,2.78A2.78,2.78,0,0,0,626.8,821.46Z"/><path class="cls-96" d="M1390.5,1051.83a2.78,2.78,0,1,0-2.78,2.78A2.78,2.78,0,0,0,1390.5,1051.83Z"/><path class="cls-96" d="M1562.12,1011.71a2.78,2.78,0,1,0-2.78,2.78A2.78,2.78,0,0,0,1562.12,1011.71Z"/><path class="cls-96" d="M1562.55,1067.29a2.78,2.78,0,1,0-2.78,2.78A2.79,2.79,0,0,0,1562.55,1067.29Z"/><path class="cls-96" d="M1615.75,1088a2.78,2.78,0,1,0-2.77,2.78A2.78,2.78,0,0,0,1615.75,1088Z"/><text class="cls-1" transform="translate(1670.87 1148.15)"><tspan class="cls-44">I</tspan><tspan class="cls-39" x="3.5" y="0">R</tspan><tspan x="12.33" y="0">AN</tspan></text><text class="cls-97" transform="translate(1862.87 1525.85)">Ar<tspan class="cls-32" x="22.1" y="0">a</tspan><tspan class="cls-98" x="33.31" y="0">b</tspan><tspan class="cls-86" x="45.23" y="0">i</tspan><tspan class="cls-81" x="52.65" y="0">a</tspan><tspan class="cls-14" x="63.86" y="0">n </tspan><tspan class="cls-99" x="83.08" y="0">S</tspan><tspan class="cls-15" x="95.53" y="0">e</tspan><tspan class="cls-100" x="107.03" y="0">a</tspan></text><g id="_1-real_location" data-name="1-real_location"><circle class="cls-96" cx="1556.95" cy="1011.12" r="23.81"/><text class="cls-101" transform="translate(1549.97 1022.54)">1</text></g><g id="_1" data-name="1"><circle class="cls-96" cx="1821.95" cy="996.12" r="23.81"/><text class="cls-101" transform="translate(1814.97 1007.54)">1</text></g><g id="_2-real_location" data-name="2-real_location"><circle class="cls-96" cx="1611.95" cy="1089.73" r="23.81"/><text class="cls-101" transform="translate(1602.22 1101.15)">2</text></g><g id="_2" data-name="2"><circle class="cls-96" cx="1821.95" cy="1137.73" r="23.81"/><text class="cls-101" transform="translate(1812.22 1149.15)">2</text></g><g id="_3-real_location" data-name="3-real_location"><circle class="cls-96" cx="1391.01" cy="1051.29" r="23.81" transform="translate(-290.36 1512.95) rotate(-52.43)"/><text class="cls-101" transform="translate(1381.08 1062.71)">3</text></g><g id="_3" data-name="3"><circle class="cls-96" cx="1281.01" cy="1064.29" r="23.81" transform="translate(-343.6 1430.83) rotate(-52.43)"/><text class="cls-101" transform="translate(1271.08 1075.71)">3</text></g><g id="_5-real_location" data-name="5-real_location"><circle class="cls-96" cx="1558.95" cy="1065.92" r="23.81"/><text class="cls-101" transform="translate(1549.1 1077.34)">5</text></g><g id="_5" data-name="5"><circle class="cls-96" cx="1821.95" cy="1066.92" r="23.81"/><text class="cls-101" transform="translate(1812.1 1078.34)">5</text></g><g id="_4" data-name="4"><circle class="cls-96" cx="906.89" cy="967.3" r="23.81"/><text class="cls-101" transform="translate(897.11 978.72)">4</text></g><g id="_6" data-name="6"><circle class="cls-96" cx="620.14" cy="826.63" r="23.81"/><text class="cls-101" transform="translate(610 838.05)">6</text></g><line class="cls-102" x1="1798.14" y1="996.12" x2="1559.34" y2="1011.71"/><line class="cls-102" x1="1800.34" y1="1067.89" x2="1560.9" y2="1066.79"/><line class="cls-102" x1="1802" y1="1135.23" x2="1613.28" y2="1088.4"/><line class="cls-102" x1="1304.82" y1="1064.29" x2="1387.72" y2="1051.83"/></svg>