<svg id="_5_-_SASANIANN" data-name="5 - SASANIANN" xmlns="http://www.w3.org/2000/svg" viewBox="0 0 4096 2190"><defs><style>.cls-1,.cls-15,.cls-23,.cls-30,.cls-58,.cls-63,.cls-8{font-size:13.27px;}.cls-1,.cls-23{fill:#939598;}.cls-1,.cls-23,.cls-72{font-family:NeutralStd-Regular, Neutral Std;}.cls-2,.cls-63{letter-spacing:0em;}.cls-3{letter-spacing:0em;}.cls-4{letter-spacing:-0.09em;}.cls-5{letter-spacing:-0.03em;}.cls-6{letter-spacing:0em;}.cls-7{letter-spacing:0em;}.cls-15,.cls-30,.cls-58,.cls-62,.cls-63,.cls-8{fill:#231f20;}.cls-15,.cls-30,.cls-8{font-family:NeutralStd-RegularItalic, Neutral Std;font-style:italic;}.cls-8{letter-spacing:0.35em;}.cls-9{letter-spacing:0.34em;}.cls-10{letter-spacing:0.34em;}.cls-11{letter-spacing:0.34em;}.cls-12{letter-spacing:0.35em;}.cls-13{letter-spacing:0.35em;}.cls-14{letter-spacing:0.35em;}.cls-15{letter-spacing:0.36em;}.cls-16{letter-spacing:0.34em;}.cls-17{letter-spacing:0.34em;}.cls-18{letter-spacing:0.34em;}.cls-19{letter-spacing:0.34em;}.cls-20{letter-spacing:0.34em;}.cls-21{letter-spacing:0.35em;}.cls-22{letter-spacing:0.35em;}.cls-23,.cls-41{letter-spacing:-0.01em;}.cls-24{letter-spacing:0.02em;}.cls-25{letter-spacing:0em;}.cls-26{letter-spacing:0em;}.cls-27{letter-spacing:-0.03em;}.cls-28{letter-spacing:-0.04em;}.cls-29{letter-spacing:0.01em;}.cls-30{letter-spacing:0.35em;}.cls-31{letter-spacing:0.35em;}.cls-32{letter-spacing:0.34em;}.cls-33{letter-spacing:0.33em;}.cls-34{letter-spacing:0.34em;}.cls-35{letter-spacing:0.34em;}.cls-36{letter-spacing:0.34em;}.cls-37{letter-spacing:0.35em;}.cls-38{letter-spacing:0.02em;}.cls-39{letter-spacing:0em;}.cls-40{letter-spacing:-0.02em;}.cls-42{letter-spacing:-0.01em;}.cls-43{letter-spacing:-0.01em;}.cls-44{letter-spacing:0em;}.cls-45{letter-spacing:0.03em;}.cls-46{letter-spacing:0em;}.cls-47{letter-spacing:0em;}.cls-48{letter-spacing:0.01em;}.cls-49{letter-spacing:-0.01em;}.cls-50{letter-spacing:0em;}.cls-51{letter-spacing:-0.06em;}.cls-52{letter-spacing:-0.01em;}.cls-53{letter-spacing:0.01em;}.cls-54{letter-spacing:0em;}.cls-55{letter-spacing:0em;}.cls-56{letter-spacing:0em;}.cls-57{letter-spacing:0em;}.cls-58,.cls-63{font-family:NeutralStd-Bold, Neutral Std;font-weight:700;}.cls-58{letter-spacing:-0.02em;}.cls-59{letter-spacing:-0.01em;}.cls-60{letter-spacing:-0.01em;}.cls-61{letter-spacing:-0.01em;}.cls-64{letter-spacing:-0.01em;}.cls-65{letter-spacing:-0.01em;}.cls-66{letter-spacing:-0.01em;}.cls-67{letter-spacing:-0.01em;}.cls-68{letter-spacing:-0.02em;}.cls-69{letter-spacing:-0.01em;}.cls-70{letter-spacing:-0.01em;}.cls-71{letter-spacing:-0.01em;}.cls-72{font-size:33.17px;fill:#fff;letter-spacing:-0.02em;}</style></defs><title>chi na</title><text class="cls-1" transform="translate(1156.19 954.79)"><tspan class="cls-2">A</tspan><tspan class="cls-3" x="9.62" y="0">N</tspan><tspan class="cls-4" x="19.67" y="0">A</tspan><tspan class="cls-5" x="28.16" y="0">T</tspan><tspan class="cls-6" x="36.08" y="0">O</tspan><tspan class="cls-7" x="46.56" y="0">L</tspan><tspan class="cls-3" x="54.34" y="0">I</tspan><tspan x="58.14" y="0">A</tspan></text><text class="cls-8" transform="translate(1192.07 806.95)">B<tspan class="cls-9" x="13.74" y="0">l</tspan><tspan class="cls-10" x="21.65" y="0">a</tspan><tspan class="cls-11" x="33.66" y="0">c</tspan><tspan class="cls-12" x="45.47" y="0">k </tspan><tspan class="cls-13" x="65.31" y="0">S</tspan><tspan class="cls-14" x="78.62" y="0">e</tspan><tspan class="cls-12" x="90.91" y="0">a</tspan></text><text class="cls-15" transform="translate(1633.28 835.38)">C<tspan class="cls-16" x="14.28" y="0">a</tspan><tspan class="cls-17" x="26.26" y="0">s</tspan><tspan class="cls-18" x="37.45" y="0">p</tspan><tspan class="cls-19" x="50.17" y="0">i</tspan><tspan class="cls-20" x="58.1" y="0">a</tspan><tspan class="cls-12" x="70.07" y="0">n</tspan><tspan class="cls-21"><tspan x="22.45" y="14.1">S</tspan><tspan class="cls-22" x="35.75" y="14.1">e</tspan><tspan class="cls-12" x="48.04" y="14.1">a</tspan></tspan></text><text class="cls-23" transform="translate(1782.59 1168.37)">I<tspan class="cls-24" x="3.74" y="0">R</tspan><tspan class="cls-25" x="13.17" y="0">A</tspan><tspan class="cls-26" x="22.79" y="0">N</tspan></text><text class="cls-1" transform="translate(1027.27 1322.59)"><tspan class="cls-27">E</tspan><tspan class="cls-28" x="8.12" y="0">G</tspan><tspan class="cls-2" x="17.87" y="0">Y</tspan><tspan class="cls-29" x="26.63" y="0">P</tspan><tspan x="35.25" y="0">T</tspan></text><text class="cls-30" transform="translate(735.31 1107.83)">M<tspan class="cls-31" x="16.86" y="0">e</tspan><tspan class="cls-16" x="29.25" y="0">d</tspan><tspan class="cls-32" x="42.03" y="0">i</tspan><tspan class="cls-33" x="50.02" y="0">t</tspan><tspan class="cls-34" x="59.32" y="0">e</tspan><tspan class="cls-35" x="71.59" y="0">r</tspan><tspan class="cls-36" x="81.17" y="0">r</tspan><tspan class="cls-20" x="90.78" y="0">a</tspan><tspan class="cls-18" x="102.76" y="0">n</tspan><tspan class="cls-22" x="115.2" y="0">e</tspan><tspan class="cls-20" x="127.49" y="0">a</tspan><tspan class="cls-12" x="139.47" y="0">n </tspan><tspan class="cls-21" x="160" y="0">S</tspan><tspan class="cls-22" x="173.31" y="0">e</tspan><tspan class="cls-37" x="185.6" y="0">a</tspan></text><text class="cls-1" transform="translate(1540.3 1450.05)"><tspan class="cls-2">A</tspan><tspan class="cls-38" x="9.62" y="0">R</tspan><tspan class="cls-2" x="19.05" y="0">A</tspan><tspan x="28.67" y="0">B</tspan><tspan class="cls-3" x="38" y="0">I</tspan><tspan class="cls-2" x="41.79" y="0">A</tspan><tspan x="51.42" y="0">N</tspan><tspan class="cls-39" x="-7.77" y="14.93">P</tspan><tspan class="cls-40" x="0.64" y="14.93">E</tspan><tspan class="cls-41" x="8.85" y="14.93">NI</tspan><tspan class="cls-42" x="22.58" y="14.93">N</tspan><tspan class="cls-43" x="32.48" y="14.93">S</tspan><tspan class="cls-44" x="41.44" y="14.93">U</tspan><tspan class="cls-45" x="51.39" y="14.93">L</tspan><tspan x="59.61" y="14.93">A</tspan></text><text class="cls-1" transform="translate(2387.23 1475.65)"><tspan class="cls-41">IN</tspan><tspan class="cls-46" x="13.73" y="0">D</tspan><tspan class="cls-3" x="23.62" y="0">I</tspan><tspan x="27.42" y="0">A</tspan></text><text class="cls-1" transform="translate(2546.96 1131.3)"><tspan class="cls-3">T</tspan><tspan class="cls-41" x="8.3" y="0">I</tspan><tspan class="cls-47" x="12.04" y="0">B</tspan><tspan class="cls-48" x="21.36" y="0">E</tspan><tspan x="29.95" y="0">T</tspan></text><text class="cls-1" transform="translate(3056.25 1238.53)"><tspan class="cls-49">C</tspan><tspan class="cls-50" x="9.71" y="0">H</tspan><tspan class="cls-41" x="19.76" y="0">I</tspan><tspan class="cls-3" x="23.5" y="0">N</tspan><tspan x="33.54" y="0">A</tspan></text><text class="cls-1" transform="translate(3675.4 973.37)"><tspan class="cls-51">K</tspan><tspan class="cls-6" x="8.59" y="0">O</tspan><tspan class="cls-52" x="19.07" y="0">R</tspan><tspan class="cls-53" x="28.07" y="0">E</tspan><tspan x="36.7" y="0">A</tspan></text><text class="cls-1" transform="translate(2213.59 835.38)"><tspan class="cls-54">S</tspan><tspan class="cls-2" x="9.02" y="0">O</tspan><tspan class="cls-55" x="19.53" y="0">G</tspan><tspan class="cls-56" x="29.75" y="0">D</tspan><tspan class="cls-57" x="39.64" y="0">I</tspan><tspan class="cls-2" x="43.44" y="0">A</tspan><tspan class="cls-3" x="53.06" y="0">N</tspan><tspan x="63.1" y="0">A</tspan></text><text class="cls-58" transform="translate(678.24 849.76)">R<tspan class="cls-59" x="9.44" y="0">o</tspan><tspan class="cls-60" x="17.82" y="0">m</tspan><tspan class="cls-61" x="31.23" y="0">e</tspan></text><circle class="cls-62" cx="672.54" cy="845.26" r="2.97"/><text class="cls-63" transform="translate(1122.76 882.33)">C<tspan class="cls-59" x="10.31" y="0">o</tspan><tspan class="cls-64" x="18.7" y="0">n</tspan><tspan class="cls-65" x="27.36" y="0">s</tspan><tspan class="cls-66" x="35.16" y="0">t</tspan><tspan class="cls-67" x="40.7" y="0">a</tspan><tspan class="cls-68" x="48.82" y="0">n</tspan><tspan class="cls-69" x="57.45" y="0">t</tspan><tspan class="cls-70" x="62.97" y="0">i</tspan><tspan class="cls-60" x="66.98" y="0">n</tspan><tspan class="cls-59" x="75.67" y="0">o</tspan><tspan class="cls-71" x="84.06" y="0">p</tspan><tspan class="cls-61" x="92.83" y="0">le</tspan></text><circle class="cls-62" cx="1117.06" cy="877.83" r="2.97"/><g id="_1" data-name="1"><circle class="cls-62" cx="1524.1" cy="1138.29" r="25.45"/><text class="cls-72" transform="translate(1516.64 1150.49)">1</text></g><g id="_2" data-name="2"><circle class="cls-62" cx="1705.04" cy="1102.75" r="25.45"/><text class="cls-72" transform="translate(1694.64 1114.95)">2</text></g><g id="_3" data-name="3"><circle class="cls-62" cx="3366.99" cy="1050.69" r="25.45"/><text class="cls-72" transform="translate(3356.38 1062.9)">3</text></g><g id="_7" data-name="7"><circle class="cls-62" cx="3224.42" cy="1109.27" r="25.45"/><text class="cls-72" transform="translate(3215.2 1121.47)">7</text></g><g id="_4" data-name="4"><circle class="cls-62" cx="3744.26" cy="1049.44" r="25.45"/><text class="cls-72" transform="translate(3733.81 1061.65)">4</text></g><g id="_5" data-name="5"><circle class="cls-62" cx="615.94" cy="739.09" r="25.45"/><text class="cls-72" transform="translate(605.41 751.29)">5</text></g><g id="_6" data-name="6"><circle class="cls-62" cx="2647.44" cy="1165.16" r="25.45"/><text class="cls-72" transform="translate(2636.6 1177.36)">6</text></g></svg>