<svg id="_3_-_GREECE" data-name="3 - GREECE" xmlns="http://www.w3.org/2000/svg" viewBox="0 0 4096 2190"><defs><style>.cls-1,.cls-21,.cls-35,.cls-38,.cls-44,.cls-50,.cls-68{font-size:13.27px;}.cls-1,.cls-35{fill:#939598;}.cls-1,.cls-35,.cls-80,.cls-81{font-family:NeutralStd-Regular, Neutral Std;}.cls-2{letter-spacing:0em;}.cls-3{letter-spacing:0em;}.cls-4{letter-spacing:-0.09em;}.cls-5{letter-spacing:-0.03em;}.cls-6{letter-spacing:0em;}.cls-7{letter-spacing:0em;}.cls-8{letter-spacing:0em;}.cls-9{letter-spacing:-0.01em;}.cls-10{letter-spacing:-0.02em;}.cls-11{letter-spacing:-0.03em;}.cls-12{letter-spacing:-0.01em;}.cls-13{letter-spacing:0.01em;}.cls-14{letter-spacing:-0.02em;}.cls-15{letter-spacing:0em;}.cls-16{letter-spacing:0em;}.cls-17{letter-spacing:-0.01em;}.cls-18{letter-spacing:0em;}.cls-19{letter-spacing:0.02em;}.cls-20{letter-spacing:-0.03em;}.cls-21,.cls-38,.cls-44,.cls-50,.cls-68,.cls-76{fill:#231f20;}.cls-21,.cls-38,.cls-44,.cls-50,.cls-68{font-family:NeutralStd-RegularItalic, Neutral Std;font-style:italic;}.cls-21,.cls-56{letter-spacing:0.35em;}.cls-22{letter-spacing:0.35em;}.cls-23{letter-spacing:0.34em;}.cls-24{letter-spacing:0.34em;}.cls-25{letter-spacing:0.33em;}.cls-26{letter-spacing:0.34em;}.cls-27{letter-spacing:0.34em;}.cls-28{letter-spacing:0.34em;}.cls-29{letter-spacing:0.34em;}.cls-30{letter-spacing:0.34em;}.cls-31{letter-spacing:0.35em;}.cls-32{letter-spacing:0.35em;}.cls-33,.cls-38{letter-spacing:0.35em;}.cls-34{letter-spacing:0.35em;}.cls-35{letter-spacing:-0.01em;}.cls-36{letter-spacing:0em;}.cls-37{letter-spacing:0em;}.cls-39{letter-spacing:0.34em;}.cls-40{letter-spacing:0.34em;}.cls-41{letter-spacing:0.34em;}.cls-42{letter-spacing:0.29em;}.cls-43{letter-spacing:0.32em;}.cls-44{letter-spacing:0.35em;}.cls-45{letter-spacing:0.34em;}.cls-46{letter-spacing:0.34em;}.cls-47{letter-spacing:0.34em;}.cls-48{letter-spacing:0.35em;}.cls-49{letter-spacing:0.35em;}.cls-50{letter-spacing:0.36em;}.cls-51{letter-spacing:0.34em;}.cls-52{letter-spacing:0.34em;}.cls-53{letter-spacing:0.35em;}.cls-54{letter-spacing:0.34em;}.cls-55{letter-spacing:0.34em;}.cls-57{letter-spacing:0.34em;}.cls-58{letter-spacing:0.33em;}.cls-59{letter-spacing:0.33em;}.cls-60{letter-spacing:0.34em;}.cls-61{letter-spacing:0.34em;}.cls-62{letter-spacing:0.34em;}.cls-63{letter-spacing:0.35em;}.cls-64{letter-spacing:0em;}.cls-65{letter-spacing:-0.02em;}.cls-66{letter-spacing:0.03em;}.cls-67{letter-spacing:0em;}.cls-68{letter-spacing:0.35em;}.cls-69{letter-spacing:0.34em;}.cls-70{letter-spacing:0.34em;}.cls-71{letter-spacing:0.35em;}.cls-72{letter-spacing:0.34em;}.cls-73{letter-spacing:0.33em;}.cls-74{letter-spacing:0.34em;}.cls-75{letter-spacing:0.34em;}.cls-77{letter-spacing:-0.04em;}.cls-78{letter-spacing:0.01em;}.cls-79{fill:none;stroke:#000;stroke-miterlimit:10;stroke-width:2.37px;}.cls-80,.cls-81{font-size:33.17px;fill:#fff;}.cls-80{letter-spacing:-0.02em;}.cls-81{letter-spacing:-0.1em;}.cls-82{letter-spacing:-0.08em;}</style></defs><title>greece</title><text class="cls-1" transform="translate(1155.05 953.65)"><tspan class="cls-2">A</tspan><tspan class="cls-3" x="9.62" y="0">N</tspan><tspan class="cls-4" x="19.67" y="0">A</tspan><tspan class="cls-5" x="28.16" y="0">T</tspan><tspan class="cls-6" x="36.08" y="0">O</tspan><tspan class="cls-7" x="46.56" y="0">L</tspan><tspan class="cls-3" x="54.34" y="0">I</tspan><tspan x="58.14" y="0">A</tspan></text><text class="cls-1" transform="translate(890.58 937.73)"><tspan class="cls-8">G</tspan><tspan class="cls-9" x="10.22" y="0">R</tspan><tspan class="cls-10" x="19.21" y="0">E</tspan><tspan class="cls-11" x="27.41" y="0">E</tspan><tspan class="cls-12" x="35.53" y="0">C</tspan><tspan x="45.24" y="0">E</tspan></text><text class="cls-1" transform="translate(623.27 792.74)"><tspan class="cls-13">E</tspan><tspan class="cls-3" x="8.59" y="0">T</tspan><tspan class="cls-14" x="16.89" y="0">R</tspan><tspan class="cls-15" x="25.78" y="0">U</tspan><tspan class="cls-16" x="35.81" y="0">T</tspan><tspan class="cls-17" x="44.11" y="0">R</tspan><tspan class="cls-3" x="53.11" y="0">I</tspan><tspan x="56.9" y="0">A</tspan></text><text class="cls-1" transform="translate(933.68 829.69)"><tspan class="cls-3">T</tspan><tspan class="cls-18" x="8.3" y="0">H</tspan><tspan class="cls-19" x="18.36" y="0">R</tspan><tspan class="cls-20" x="27.78" y="0">A</tspan><tspan class="cls-12" x="37.02" y="0">C</tspan><tspan x="46.73" y="0">E</tspan></text><text class="cls-21" transform="translate(735.31 1107.83)">M<tspan class="cls-22" x="16.86" y="0">e</tspan><tspan class="cls-23" x="29.25" y="0">d</tspan><tspan class="cls-24" x="42.03" y="0">i</tspan><tspan class="cls-25" x="50.02" y="0">t</tspan><tspan class="cls-26" x="59.32" y="0">e</tspan><tspan class="cls-27" x="71.59" y="0">r</tspan><tspan class="cls-28" x="81.17" y="0">r</tspan><tspan class="cls-29" x="90.78" y="0">a</tspan><tspan class="cls-30" x="102.76" y="0">n</tspan><tspan class="cls-31" x="115.2" y="0">e</tspan><tspan class="cls-29" x="127.49" y="0">a</tspan><tspan class="cls-32" x="139.47" y="0">n </tspan><tspan class="cls-33" x="160" y="0">S</tspan><tspan class="cls-31" x="173.31" y="0">e</tspan><tspan class="cls-34" x="185.6" y="0">a</tspan></text><text class="cls-35" transform="translate(1782.59 1168.37)">I<tspan class="cls-19" x="3.74" y="0">R</tspan><tspan class="cls-36" x="13.17" y="0">A</tspan><tspan class="cls-37" x="22.79" y="0">N</tspan></text><text class="cls-38" transform="translate(2242.9 1168.37)">I<tspan class="cls-39" x="8.32" y="0">n</tspan><tspan class="cls-40" x="20.76" y="0">d</tspan><tspan class="cls-41" x="33.47" y="0">u</tspan><tspan class="cls-32" x="45.84" y="0">s </tspan><tspan class="cls-42" x="65.16" y="0">V</tspan><tspan class="cls-29" x="78.34" y="0">al</tspan><tspan class="cls-24" x="98.29" y="0">l</tspan><tspan class="cls-43" x="106.28" y="0">e</tspan><tspan class="cls-32" x="118.27" y="0">y</tspan></text><text class="cls-44" transform="translate(1192.06 806.95)">B<tspan class="cls-45" x="13.74" y="0">l</tspan><tspan class="cls-46" x="21.65" y="0">a</tspan><tspan class="cls-47" x="33.66" y="0">c</tspan><tspan class="cls-32" x="45.47" y="0">k </tspan><tspan class="cls-48" x="65.31" y="0">S</tspan><tspan class="cls-49" x="78.62" y="0">e</tspan><tspan class="cls-32" x="90.91" y="0">a</tspan></text><text class="cls-50" transform="translate(1479.01 824.58)">C<tspan class="cls-51" x="14.28" y="0">a</tspan><tspan class="cls-52" x="26.2" y="0">u</tspan><tspan class="cls-53" x="38.6" y="0">c</tspan><tspan class="cls-54" x="50.54" y="0">a</tspan><tspan class="cls-55" x="62.52" y="0">su</tspan><tspan class="cls-32" x="86.03" y="0">s</tspan><tspan class="cls-56"><tspan x="-4.85" y="14.1">M</tspan><tspan class="cls-57" x="12.01" y="14.1">ou</tspan><tspan class="cls-58" x="36.88" y="14.1">n</tspan><tspan class="cls-59" x="49.18" y="14.1">t</tspan><tspan class="cls-60" x="58.54" y="14.1">a</tspan><tspan class="cls-61" x="70.52" y="14.1">i</tspan><tspan class="cls-62" x="78.47" y="14.1">n</tspan><tspan class="cls-63" x="90.88" y="14.1">s</tspan></tspan></text><text class="cls-1" transform="translate(1611.67 607.03)"><tspan class="cls-64">S</tspan><tspan class="cls-65" x="9.02" y="0">C</tspan><tspan class="cls-66" x="18.57" y="0">Y</tspan><tspan class="cls-3" x="27.77" y="0">T</tspan><tspan class="cls-67" x="36.07" y="0">H</tspan><tspan class="cls-3" x="46.12" y="0">I</tspan><tspan x="49.91" y="0">A</tspan></text><text class="cls-68" transform="translate(853.53 764.87)">D<tspan class="cls-29" x="14.25" y="0">a</tspan><tspan class="cls-69" x="26.23" y="0">n</tspan><tspan class="cls-70" x="38.59" y="0">u</tspan><tspan class="cls-32" x="50.98" y="0">be</tspan><tspan class="cls-71"><tspan x="10.71" y="14.1">R</tspan><tspan class="cls-72" x="24.07" y="14.1">i</tspan><tspan class="cls-73" x="31.98" y="14.1">v</tspan><tspan class="cls-26" x="43.47" y="14.1">e</tspan><tspan class="cls-34" x="55.74" y="14.1">r</tspan></tspan></text><text class="cls-50" transform="translate(1633.28 835.38)">C<tspan class="cls-23" x="14.28" y="0">a</tspan><tspan class="cls-74" x="26.26" y="0">s</tspan><tspan class="cls-30" x="37.45" y="0">p</tspan><tspan class="cls-75" x="50.17" y="0">i</tspan><tspan class="cls-29" x="58.1" y="0">a</tspan><tspan class="cls-32" x="70.07" y="0">n</tspan><tspan class="cls-33"><tspan x="22.45" y="14.1">S</tspan><tspan class="cls-31" x="35.75" y="14.1">e</tspan><tspan class="cls-32" x="48.04" y="14.1">a</tspan></tspan></text><circle class="cls-76" cx="976.97" cy="989.48" r="2.97"/><text class="cls-1" transform="translate(1027.28 1322.59)"><tspan class="cls-11">E</tspan><tspan class="cls-77" x="8.12" y="0">G</tspan><tspan class="cls-2" x="17.87" y="0">Y</tspan><tspan class="cls-78" x="26.63" y="0">P</tspan><tspan x="35.25" y="0">T</tspan></text><circle class="cls-76" cx="725.19" cy="886.71" r="2.97"/><line class="cls-79" x1="976.97" y1="989.48" x2="536.4" y2="1083.48"/><g id="_3" data-name="3"><circle class="cls-76" cx="724.06" cy="886.27" r="25.45"/><text class="cls-80" transform="translate(713.45 898.48)">3</text></g><g id="_4" data-name="4"><circle class="cls-76" cx="1351.19" cy="1024.47" r="25.45"/><text class="cls-80" transform="translate(1340.74 1036.68)">4</text></g><g id="_5" data-name="5"><circle class="cls-76" cx="1176.76" cy="1236.51" r="25.45"/><text class="cls-80" transform="translate(1166.23 1248.71)">5</text></g><g id="_6" data-name="6"><circle class="cls-76" cx="1368.57" cy="928.18" r="25.45"/><text class="cls-80" transform="translate(1357.72 940.39)">6</text></g><g id="_8" data-name="8"><circle class="cls-76" cx="794.44" cy="881.14" r="25.45"/><text class="cls-80" transform="translate(783.83 893.34)">8</text></g><g id="_1" data-name="1"><circle class="cls-76" cx="518.51" cy="1088.04" r="25.45"/><text class="cls-80" transform="translate(511.04 1100.25)">1</text></g><g id="_2" data-name="2"><circle class="cls-76" cx="518.51" cy="1146.38" r="25.45"/><text class="cls-80" transform="translate(508.11 1158.59)">2</text></g><g id="_7" data-name="7"><circle class="cls-76" cx="518.51" cy="1204.72" r="25.45"/><text class="cls-80" transform="translate(509.29 1216.92)">7</text></g><g id="_9" data-name="9"><circle class="cls-76" cx="518.51" cy="1263.06" r="25.45"/><text class="cls-80" transform="translate(507.71 1275.26)">9</text></g><g id="_10" data-name="10"><circle class="cls-76" cx="1061.56" cy="843.23" r="25.45"/><text class="cls-81" transform="translate(1044.46 855.44)">1<tspan class="cls-82" x="11.52" y="0">0</tspan></text></g></svg>