<svg id="_4_-_ROME" data-name="4 - ROME" xmlns="http://www.w3.org/2000/svg" viewBox="0 0 4096 2190"><defs><style>.cls-1,.cls-16,.cls-28,.cls-46,.cls-50,.cls-56,.cls-62,.cls-8{font-size:13.27px;}.cls-1,.cls-28,.cls-50,.cls-56,.cls-62,.cls-69,.cls-8{fill:#231f20;}.cls-1,.cls-28,.cls-50,.cls-56,.cls-62,.cls-8{font-family:NeutralStd-RegularItalic, Neutral Std;font-style:italic;}.cls-1{letter-spacing:0.35em;}.cls-2{letter-spacing:0.34em;}.cls-3{letter-spacing:0.34em;}.cls-4{letter-spacing:0.34em;}.cls-5{letter-spacing:0.35em;}.cls-6{letter-spacing:0.35em;}.cls-7{letter-spacing:0.35em;}.cls-8{letter-spacing:0.36em;}.cls-9{letter-spacing:0.34em;}.cls-10{letter-spacing:0.34em;}.cls-11{letter-spacing:0.34em;}.cls-12{letter-spacing:0.34em;}.cls-13{letter-spacing:0.34em;}.cls-14,.cls-62{letter-spacing:0.35em;}.cls-15{letter-spacing:0.35em;}.cls-16,.cls-46{fill:#939598;}.cls-16,.cls-46,.cls-70{font-family:NeutralStd-Regular, Neutral Std;}.cls-17{letter-spacing:0em;}.cls-18{letter-spacing:0em;}.cls-19{letter-spacing:-0.09em;}.cls-20{letter-spacing:-0.03em;}.cls-21{letter-spacing:0em;}.cls-22{letter-spacing:0em;}.cls-23{letter-spacing:0em;}.cls-24{letter-spacing:-0.01em;}.cls-25{letter-spacing:-0.02em;}.cls-26{letter-spacing:-0.03em;}.cls-27{letter-spacing:-0.01em;}.cls-28{letter-spacing:0.35em;}.cls-29{letter-spacing:0.34em;}.cls-30{letter-spacing:0.34em;}.cls-31{letter-spacing:0.35em;}.cls-32{letter-spacing:0.34em;}.cls-33{letter-spacing:0.33em;}.cls-34{letter-spacing:0.34em;}.cls-35{letter-spacing:0.35em;}.cls-36{letter-spacing:-0.04em;}.cls-37{letter-spacing:0.01em;}.cls-38{letter-spacing:0.02em;}.cls-39{letter-spacing:0em;}.cls-40{letter-spacing:-0.02em;}.cls-41,.cls-46{letter-spacing:-0.01em;}.cls-42{letter-spacing:-0.01em;}.cls-43{letter-spacing:-0.01em;}.cls-44{letter-spacing:0em;}.cls-45{letter-spacing:0.03em;}.cls-47{letter-spacing:0.02em;}.cls-48{letter-spacing:0em;}.cls-49{letter-spacing:0em;}.cls-50{letter-spacing:0.35em;}.cls-51{letter-spacing:0.35em;}.cls-52{letter-spacing:0.34em;}.cls-53{letter-spacing:0.33em;}.cls-54{letter-spacing:0.34em;}.cls-55{letter-spacing:0.34em;}.cls-56{letter-spacing:0.34em;}.cls-57{letter-spacing:0.35em;}.cls-58{letter-spacing:0.34em;}.cls-59{letter-spacing:0.34em;}.cls-60{letter-spacing:0.34em;}.cls-61{letter-spacing:0.34em;}.cls-63{letter-spacing:0.34em;}.cls-64{letter-spacing:0.34em;}.cls-65{letter-spacing:0.34em;}.cls-66{letter-spacing:0.29em;}.cls-67{letter-spacing:0.32em;}.cls-68{letter-spacing:0em;}.cls-70{font-size:33.17px;fill:#fff;letter-spacing:-0.02em;}</style></defs><title>roman</title><text class="cls-1" transform="translate(1192.07 806.95)">B<tspan class="cls-2" x="13.74" y="0">l</tspan><tspan class="cls-3" x="21.65" y="0">a</tspan><tspan class="cls-4" x="33.66" y="0">c</tspan><tspan class="cls-5" x="45.47" y="0">k </tspan><tspan class="cls-6" x="65.31" y="0">S</tspan><tspan class="cls-7" x="78.62" y="0">e</tspan><tspan class="cls-5" x="90.91" y="0">a</tspan></text><text class="cls-8" transform="translate(1633.28 835.38)">C<tspan class="cls-9" x="14.28" y="0">a</tspan><tspan class="cls-10" x="26.26" y="0">s</tspan><tspan class="cls-11" x="37.45" y="0">p</tspan><tspan class="cls-12" x="50.17" y="0">i</tspan><tspan class="cls-13" x="58.1" y="0">a</tspan><tspan class="cls-5" x="70.07" y="0">n</tspan><tspan class="cls-14"><tspan x="22.45" y="14.1">S</tspan><tspan class="cls-15" x="35.75" y="14.1">e</tspan><tspan class="cls-5" x="48.04" y="14.1">a</tspan></tspan></text><text class="cls-16" transform="translate(1155.62 953.65)"><tspan class="cls-17">A</tspan><tspan class="cls-18" x="9.62" y="0">N</tspan><tspan class="cls-19" x="19.67" y="0">A</tspan><tspan class="cls-20" x="28.16" y="0">T</tspan><tspan class="cls-21" x="36.08" y="0">O</tspan><tspan class="cls-22" x="46.56" y="0">L</tspan><tspan class="cls-18" x="54.34" y="0">I</tspan><tspan x="58.14" y="0">A</tspan></text><text class="cls-16" transform="translate(901.44 951.85)"><tspan class="cls-23">G</tspan><tspan class="cls-24" x="10.22" y="0">R</tspan><tspan class="cls-25" x="19.21" y="0">E</tspan><tspan class="cls-26" x="27.41" y="0">E</tspan><tspan class="cls-27" x="35.53" y="0">C</tspan><tspan x="45.24" y="0">E</tspan></text><text class="cls-28" transform="translate(853.53 764.87)">D<tspan class="cls-13" x="14.25" y="0">a</tspan><tspan class="cls-29" x="26.23" y="0">n</tspan><tspan class="cls-30" x="38.59" y="0">u</tspan><tspan class="cls-5" x="50.98" y="0">be</tspan><tspan class="cls-31"><tspan x="10.71" y="14.1">R</tspan><tspan class="cls-32" x="24.07" y="14.1">i</tspan><tspan class="cls-33" x="31.98" y="14.1">v</tspan><tspan class="cls-34" x="43.47" y="14.1">e</tspan><tspan class="cls-35" x="55.74" y="14.1">r</tspan></tspan></text><text class="cls-16" transform="translate(1027.28 1322.59)"><tspan class="cls-26">E</tspan><tspan class="cls-36" x="8.12" y="0">G</tspan><tspan class="cls-17" x="17.87" y="0">Y</tspan><tspan class="cls-37" x="26.63" y="0">P</tspan><tspan x="35.25" y="0">T</tspan></text><text class="cls-16" transform="translate(1540.3 1450.05)"><tspan class="cls-17">A</tspan><tspan class="cls-38" x="9.62" y="0">R</tspan><tspan class="cls-17" x="19.05" y="0">A</tspan><tspan x="28.67" y="0">B</tspan><tspan class="cls-18" x="38" y="0">I</tspan><tspan class="cls-17" x="41.79" y="0">A</tspan><tspan x="51.42" y="0">N</tspan><tspan class="cls-39" x="-7.77" y="14.93">P</tspan><tspan class="cls-40" x="0.64" y="14.93">E</tspan><tspan class="cls-41" x="8.85" y="14.93">NI</tspan><tspan class="cls-42" x="22.58" y="14.93">N</tspan><tspan class="cls-43" x="32.48" y="14.93">S</tspan><tspan class="cls-44" x="41.44" y="14.93">U</tspan><tspan class="cls-45" x="51.39" y="14.93">L</tspan><tspan x="59.61" y="14.93">A</tspan></text><text class="cls-46" transform="translate(1782.58 1168.37)">I<tspan class="cls-47" x="3.74" y="0">R</tspan><tspan class="cls-48" x="13.17" y="0">A</tspan><tspan class="cls-49" x="22.79" y="0">N</tspan></text><text class="cls-50" transform="translate(735.31 1107.83)">M<tspan class="cls-51" x="16.86" y="0">e</tspan><tspan class="cls-9" x="29.25" y="0">d</tspan><tspan class="cls-52" x="42.03" y="0">i</tspan><tspan class="cls-53" x="50.02" y="0">t</tspan><tspan class="cls-34" x="59.32" y="0">e</tspan><tspan class="cls-54" x="71.59" y="0">r</tspan><tspan class="cls-55" x="81.17" y="0">r</tspan><tspan class="cls-13" x="90.78" y="0">a</tspan><tspan class="cls-11" x="102.76" y="0">n</tspan><tspan class="cls-15" x="115.2" y="0">e</tspan><tspan class="cls-13" x="127.49" y="0">a</tspan><tspan class="cls-5" x="139.47" y="0">n </tspan><tspan class="cls-14" x="160" y="0">S</tspan><tspan class="cls-15" x="173.31" y="0">e</tspan><tspan class="cls-35" x="185.6" y="0">a</tspan></text><text class="cls-56" transform="translate(1711.53 1357.37)">P<tspan class="cls-34" x="12.87" y="0">e</tspan><tspan class="cls-57" x="25.14" y="0">r</tspan><tspan class="cls-58" x="34.87" y="0">s</tspan><tspan class="cls-12" x="46.05" y="0">i</tspan><tspan class="cls-13" x="53.98" y="0">a</tspan><tspan class="cls-5" x="65.95" y="0">n</tspan><tspan class="cls-59"><tspan x="17.04" y="14.1">G</tspan><tspan class="cls-60" x="31.63" y="14.1">u</tspan><tspan class="cls-61" x="44.02" y="14.1">l</tspan><tspan class="cls-5" x="51.98" y="14.1">f</tspan></tspan></text><text class="cls-62" transform="translate(2242.91 1168.37)">I<tspan class="cls-63" x="8.32" y="0">n</tspan><tspan class="cls-64" x="20.76" y="0">d</tspan><tspan class="cls-65" x="33.47" y="0">u</tspan><tspan class="cls-5" x="45.84" y="0">s </tspan><tspan class="cls-66" x="65.16" y="0">V</tspan><tspan class="cls-13" x="78.34" y="0">al</tspan><tspan class="cls-52" x="98.29" y="0">l</tspan><tspan class="cls-67" x="106.28" y="0">e</tspan><tspan class="cls-5" x="118.27" y="0">y</tspan></text><text class="cls-16" transform="translate(2387.23 1475.65)"><tspan class="cls-41">IN</tspan><tspan class="cls-68" x="13.73" y="0">D</tspan><tspan class="cls-18" x="23.62" y="0">I</tspan><tspan x="27.42" y="0">A</tspan></text><circle class="cls-69" cx="671.42" cy="836.41" r="2.97"/><circle class="cls-69" cx="880.59" cy="926.25" r="2.97"/><g id="_1" data-name="1"><circle class="cls-69" cx="667.27" cy="833.06" r="25.45"/><text class="cls-70" transform="translate(659.8 845.27)">1</text></g><g id="_2" data-name="2"><circle class="cls-69" cx="2315.48" cy="1051.42" r="25.45"/><text class="cls-70" transform="translate(2305.09 1063.62)">2</text></g><g id="_3" data-name="3"><circle class="cls-69" cx="1890.23" cy="987.85" r="25.45"/><text class="cls-70" transform="translate(1879.61 1000.05)">3</text></g><g id="_4" data-name="4"><circle class="cls-69" cx="1313.35" cy="1047.62" r="25.45"/><text class="cls-70" transform="translate(1302.9 1059.82)">4</text></g><g id="_5" data-name="5"><circle class="cls-69" cx="739.62" cy="893.48" r="25.45"/><text class="cls-70" transform="translate(729.09 905.68)">5</text></g><g id="_6" data-name="6"><circle class="cls-69" cx="871.39" cy="922.72" r="25.45"/><text class="cls-70" transform="translate(860.55 934.92)">6</text></g></svg>